<?xml version="1.0" standalone="no"?>
<!DOCTYPE svg PUBLIC "-//W3C//DTD SVG 20010904//EN"
 "http://www.w3.org/TR/2001/REC-SVG-20010904/DTD/svg10.dtd">
<svg version="1.0" xmlns="http://www.w3.org/2000/svg"
 width="80.000000pt" height="80.000000pt" viewBox="0 0 80.000000 80.000000"
 preserveAspectRatio="xMidYMid meet">
<metadata>
Created by potrace 1.14, written by Peter Selinger 2001-2017
</metadata>
<g transform="translate(0.000000,80.000000) scale(0.100000,-0.100000)"
fill="#000000" stroke="none">
<path d="M357 682 c-23 -25 -21 -58 3 -82 38 -38 100 -14 100 38 0 51 -70 81
-103 44z m75 -27 c13 -29 -3 -55 -33 -55 -27 0 -46 44 -29 65 19 23 49 18 62
-10z"/>
<path d="M340 570 c0 -5 5 -10 10 -10 6 0 10 5 10 10 0 6 -4 10 -10 10 -5 0
-10 -4 -10 -10z"/>
<path d="M440 570 c0 -5 5 -10 10 -10 6 0 10 5 10 10 0 6 -4 10 -10 10 -5 0
-10 -4 -10 -10z"/>
<path d="M315 540 c-3 -5 -1 -10 4 -10 6 0 11 5 11 10 0 6 -2 10 -4 10 -3 0
-8 -4 -11 -10z"/>
<path d="M470 540 c0 -5 5 -10 11 -10 5 0 7 5 4 10 -3 6 -8 10 -11 10 -2 0 -4
-4 -4 -10z"/>
<path d="M290 499 c0 -5 5 -7 10 -4 6 3 10 8 10 11 0 2 -4 4 -10 4 -5 0 -10
-5 -10 -11z"/>
<path d="M495 500 c3 -5 8 -10 11 -10 2 0 4 5 4 10 0 6 -5 10 -11 10 -5 0 -7
-4 -4 -10z"/>
<path d="M260 470 c0 -5 5 -10 10 -10 6 0 10 5 10 10 0 6 -4 10 -10 10 -5 0
-10 -4 -10 -10z"/>
<path d="M520 470 c0 -5 5 -10 10 -10 6 0 10 5 10 10 0 6 -4 10 -10 10 -5 0
-10 -4 -10 -10z"/>
<path d="M176 441 c-25 -28 -17 -72 17 -91 24 -13 30 -13 55 0 37 21 43 71 10
94 -30 21 -61 20 -82 -3z m65 -11 c43 -24 9 -82 -36 -62 -27 12 -33 40 -13 60
15 15 24 15 49 2z"/>
<path d="M534 436 c-21 -34 -14 -67 19 -86 24 -13 30 -13 55 0 37 21 43 71 10
94 -33 23 -65 20 -84 -8z m74 -8 c32 -32 -18 -87 -53 -58 -20 17 -19 47 3 59
23 14 36 13 50 -1z"/>
<path d="M180 320 c0 -5 5 -10 10 -10 6 0 10 5 10 10 0 6 -4 10 -10 10 -5 0
-10 -4 -10 -10z"/>
<path d="M240 320 c0 -5 5 -10 10 -10 6 0 10 5 10 10 0 6 -4 10 -10 10 -5 0
-10 -4 -10 -10z"/>
<path d="M540 320 c0 -5 5 -10 10 -10 6 0 10 5 10 10 0 6 -4 10 -10 10 -5 0
-10 -4 -10 -10z"/>
<path d="M600 320 c0 -5 5 -10 10 -10 6 0 10 5 10 10 0 6 -4 10 -10 10 -5 0
-10 -4 -10 -10z"/>
<path d="M150 240 c0 -5 5 -10 10 -10 6 0 10 5 10 10 0 6 -4 10 -10 10 -5 0
-10 -4 -10 -10z"/>
<path d="M270 240 c0 -5 5 -10 10 -10 6 0 10 5 10 10 0 6 -4 10 -10 10 -5 0
-10 -4 -10 -10z"/>
<path d="M510 240 c0 -5 5 -10 10 -10 6 0 10 5 10 10 0 6 -4 10 -10 10 -5 0
-10 -4 -10 -10z"/>
<path d="M630 240 c0 -5 5 -10 10 -10 6 0 10 5 10 10 0 6 -4 10 -10 10 -5 0
-10 -4 -10 -10z"/>
<path d="M90 200 c-24 -24 -25 -48 -4 -78 30 -43 104 -16 104 38 0 53 -62 78
-100 40z m68 -12 c32 -32 -18 -87 -53 -58 -20 17 -19 47 3 59 23 14 36 13 50
-1z"/>
<path d="M270 200 c-11 -11 -20 -29 -20 -40 0 -26 34 -60 60 -60 25 0 60 34
60 58 0 54 -62 80 -100 42z m70 -15 c10 -12 10 -21 2 -40 -7 -14 -16 -25 -22
-25 -23 0 -50 21 -50 38 0 39 46 56 70 27z"/>
<path d="M444 196 c-21 -34 -14 -67 19 -86 24 -13 30 -13 55 0 37 21 43 71 10
94 -33 23 -65 20 -84 -8z m74 -8 c32 -32 -18 -87 -53 -58 -20 17 -19 47 3 59
23 14 36 13 50 -1z"/>
<path d="M626 198 c-9 -12 -16 -29 -16 -38 0 -9 7 -26 16 -38 23 -33 73 -27
94 11 13 24 13 30 0 55 -21 37 -71 43 -94 10z m74 -13 c17 -21 -2 -65 -28 -65
-36 0 -55 43 -30 68 17 17 43 15 58 -3z"/>
</g>
</svg>
