<?xml version="1.0" standalone="no"?>
<!DOCTYPE svg PUBLIC "-//W3C//DTD SVG 20010904//EN"
 "http://www.w3.org/TR/2001/REC-SVG-20010904/DTD/svg10.dtd">
<svg version="1.0" xmlns="http://www.w3.org/2000/svg"
 width="700.000000pt" height="700.000000pt" viewBox="0 0 700.000000 700.000000"
 preserveAspectRatio="xMidYMid meet">
<metadata>
Created by potrace 1.14, written by Peter Selinger 2001-2017
</metadata>
<g transform="translate(0.000000,700.000000) scale(0.100000,-0.100000)"
fill="#000000" stroke="none">
<path d="M2920 6462 c-386 -31 -716 -286 -839 -650 -37 -110 -42 -140 -46
-282 -5 -179 30 -330 110 -476 43 -77 58 -56 -130 -174 -71 -45 -164 -104
-205 -130 -41 -27 -136 -86 -210 -133 -74 -46 -256 -161 -404 -255 l-269 -171
-45 39 c-106 94 -264 110 -400 41 -55 -28 -134 -120 -157 -183 -39 -108 -15
-255 56 -341 81 -99 225 -149 348 -122 32 7 30 10 186 -290 63 -121 106 -202
210 -400 48 -92 131 -249 209 -397 29 -57 81 -156 115 -220 34 -65 57 -118 52
-118 -6 0 -20 -8 -32 -17 -186 -153 -279 -306 -314 -517 -66 -398 188 -790
577 -892 83 -21 98 -23 198 -24 132 -1 220 17 336 70 160 72 273 182 390 376
10 17 15 16 110 -8 207 -55 604 -159 621 -163 10 -2 101 -26 203 -53 l185 -49
8 -67 c10 -92 46 -164 112 -225 191 -174 484 -95 568 152 25 75 17 185 -21
257 l-29 57 51 55 c28 30 101 108 161 173 61 64 126 134 145 155 19 21 87 93
150 160 63 68 120 128 125 134 6 6 64 70 131 141 66 72 144 156 173 187 l53
57 50 -35 c135 -92 278 -136 448 -137 247 -1 459 98 616 288 295 357 215 903
-172 1161 -102 68 -262 126 -371 133 -9 1 -11 183 -11 749 l0 749 53 17 c243
76 317 398 132 577 -135 132 -337 134 -483 6 -38 -33 -92 -121 -98 -159 -5
-37 4 -37 -819 -37 l-804 0 -1 65 c-7 384 -277 751 -643 874 -119 41 -269 61
-379 52z m2645 -1134 c6 -25 18 -57 27 -70 18 -27 12 -39 -34 -74 -30 -23
-120 -99 -183 -155 -22 -19 -83 -71 -135 -114 -52 -44 -97 -82 -100 -85 -3 -3
-72 -61 -155 -130 -82 -69 -154 -130 -160 -136 -5 -6 -80 -69 -165 -139 -85
-71 -160 -134 -166 -140 -11 -10 -175 -148 -444 -375 -80 -68 -167 -142 -195
-165 -297 -255 -265 -235 -312 -198 -43 34 -108 60 -168 67 -22 3 -41 5 -41 6
-2 0 -21 99 -38 200 -14 75 -58 323 -70 390 -3 14 -17 95 -31 180 -15 85 -28
159 -28 164 -1 4 32 18 73 30 111 33 176 63 268 124 207 135 352 340 406 572
10 41 19 80 21 86 3 9 219 11 811 10 l807 -1 12 -47z m142 -205 l32 -28 -68
-170 c-38 -93 -139 -352 -226 -575 -86 -223 -186 -479 -222 -570 -35 -91 -78
-201 -94 -245 -17 -44 -35 -89 -40 -100 -25 -59 -159 -408 -159 -416 0 -12 1
-12 -141 15 -118 23 -208 40 -274 51 -16 3 -52 10 -80 15 -66 13 -95 18 -190
35 -44 8 -91 17 -105 20 -14 3 -50 9 -80 15 -30 6 -66 12 -80 15 -14 3 -50 9
-80 15 -30 6 -66 12 -80 15 -14 3 -45 8 -70 11 -25 4 -49 10 -53 14 -5 4 -11
31 -13 60 -2 29 -13 73 -24 98 l-20 44 26 21 c22 17 274 230 493 416 30 25
104 88 165 139 61 52 134 113 161 136 28 24 129 110 225 191 96 81 198 167
225 190 115 98 391 331 409 345 10 8 28 24 40 35 11 11 59 51 106 89 47 39 87
72 90 75 16 18 82 71 88 71 4 0 22 -12 39 -27z m161 -806 l2 -747 -25 -1 c-14
-1 -28 -2 -32 -3 -5 -1 -30 -6 -57 -10 -71 -11 -175 -51 -254 -96 -169 -97
-290 -254 -365 -473 -5 -12 -13 -16 -29 -12 -13 2 -36 7 -52 9 -16 3 -30 7
-33 9 -3 4 399 1051 427 1112 16 35 352 899 358 920 8 30 23 46 41 43 14 -3
16 -76 19 -751z m-3477 442 c158 -128 369 -204 579 -208 52 -1 96 -4 99 -6 2
-3 19 -89 37 -192 18 -104 40 -226 49 -273 9 -47 18 -98 21 -115 9 -60 55
-321 59 -341 4 -18 -3 -25 -43 -39 -55 -22 -146 -108 -168 -160 -8 -19 -15
-35 -17 -35 -1 0 -18 5 -37 11 -19 5 -42 12 -50 14 -8 1 -96 24 -195 50 -99
26 -187 48 -195 50 -8 2 -69 18 -135 35 -66 17 -208 54 -315 81 -107 28 -229
59 -270 70 -41 11 -82 22 -90 24 -8 2 -104 27 -214 55 -109 28 -206 53 -215
56 -9 2 -34 8 -56 14 -22 6 -47 12 -56 15 -9 2 -53 13 -97 25 l-81 22 0 56 c0
32 -6 76 -14 99 l-15 43 84 52 c47 29 103 64 125 78 42 27 632 401 759 481 41
27 125 80 185 118 l110 70 56 -57 c30 -31 75 -73 100 -93z m-1298 -968 c109
-29 207 -55 567 -147 96 -25 216 -56 265 -69 86 -23 163 -42 605 -156 287 -74
373 -97 390 -102 8 -3 27 -8 41 -11 22 -5 26 -11 27 -48 3 -84 27 -148 82
-218 l28 -35 -318 -413 c-175 -228 -322 -418 -328 -424 -8 -8 -29 1 -74 30
-139 90 -278 133 -436 132 -53 0 -110 -2 -127 -5 -67 -13 -152 -38 -188 -55
-38 -19 -38 -19 -48 3 -5 12 -26 54 -47 92 -82 152 -252 474 -433 820 -43 83
-96 184 -118 225 -22 41 -62 116 -88 167 l-48 92 41 38 c22 21 51 55 64 75 14
21 27 38 28 38 2 0 54 -13 115 -29z m2697 -665 c47 -9 96 -18 110 -21 14 -3
41 -8 60 -11 19 -3 42 -7 50 -9 8 -2 31 -7 50 -10 19 -3 80 -15 135 -25 55
-11 163 -31 240 -45 77 -15 151 -29 165 -31 14 -3 83 -16 153 -29 71 -13 130
-25 131 -27 3 -3 -120 -324 -170 -444 l-25 -62 -212 -71 c-117 -38 -320 -106
-451 -151 -132 -44 -243 -77 -247 -73 -3 5 -68 194 -143 422 l-138 413 24 16
c37 25 116 111 124 135 10 33 25 48 43 43 9 -3 54 -12 101 -20z m-560 -192
c24 -8 74 -15 111 -15 54 0 69 -3 74 -17 34 -84 273 -818 267 -823 -7 -7 -962
-329 -973 -329 -4 0 -14 24 -24 53 -22 69 -77 166 -130 232 l-44 53 160 209
c88 114 165 215 172 223 7 8 55 71 107 140 52 69 97 127 100 130 3 3 32 40 64
83 32 42 62 77 65 77 3 0 26 -7 51 -16z m1869 -54 c10 -5 14 -29 13 -91 -1
-46 4 -115 11 -154 l12 -70 -160 -55 c-88 -31 -161 -55 -163 -54 -3 2 22 71
39 109 8 19 109 279 123 318 5 16 13 18 59 12 28 -4 58 -11 66 -15z m174 -585
c17 -22 37 -46 44 -53 7 -7 13 -16 13 -20 0 -4 -39 -47 -86 -97 -47 -49 -119
-126 -159 -170 -41 -44 -95 -103 -122 -131 -26 -28 -94 -100 -150 -161 -160
-171 -161 -173 -289 -309 -67 -71 -134 -144 -150 -161 -26 -30 -29 -31 -46
-16 -12 11 -15 20 -8 33 5 9 52 129 105 266 53 137 102 263 109 279 8 17 62
155 121 307 l108 277 141 48 c77 26 168 56 201 68 l60 20 38 -70 c21 -38 53
-87 70 -110z m-692 -167 c-35 -90 -66 -170 -70 -178 -4 -8 -70 -175 -146 -371
l-138 -356 -32 7 c-18 4 -54 7 -79 5 l-45 -2 -41 126 c-22 69 -45 135 -49 146
-20 46 -170 509 -167 513 8 7 821 280 825 276 2 -2 -24 -77 -58 -166z m-727
-536 c70 -211 126 -385 124 -386 -69 -43 -129 -102 -157 -155 -20 -39 -23 -40
-106 -16 -27 8 -223 60 -435 115 -212 55 -402 104 -422 110 -21 5 -55 14 -75
20 -76 19 -83 21 -83 28 0 4 6 41 14 82 8 41 14 118 14 170 l-1 94 409 138
c225 76 447 151 494 167 47 16 88 26 91 23 3 -4 63 -179 133 -390z"/>
</g>
</svg>
