<svg width="15" height="20" viewBox="0 0 15 20" fill="none" xmlns="http://www.w3.org/2000/svg">
<path opacity="0.1" d="M7.69794 19.5636C9.76783 19.5636 11.4458 19.2366 11.4458 18.8333C11.4458 18.4299 9.76783 18.1029 7.69794 18.1029C5.62805 18.1029 3.95007 18.4299 3.95007 18.8333C3.95007 19.2366 5.62805 19.5636 7.69794 19.5636Z" fill="black"/>
<path d="M11.3108 16.111C13.247 16.111 14.1283 11.5856 14.1283 9.86969C14.1283 8.53222 13.254 7.72168 12.1046 7.72168C10.9624 7.72168 10.0351 8.24015 10.0236 8.88216C10.0236 10.5765 9.74105 16.111 11.3108 16.111Z" fill="white" stroke="black" stroke-width="0.730352"/>
<path d="M4.239 16.111C2.30278 16.111 1.42151 11.5856 1.42151 9.86969C1.42151 8.53222 2.29579 7.72168 3.44517 7.72168C4.58738 7.72168 5.51467 8.24015 5.52619 8.88216C5.52621 10.5765 5.8087 16.111 4.239 16.111Z" fill="white" stroke="black" stroke-width="0.730352"/>
<path fill-rule="evenodd" clip-rule="evenodd" d="M13.0597 9.34999C13.0911 9.02198 12.742 8.82394 12.4733 8.992C11.0689 9.8705 9.42966 10.3748 7.67881 10.3748C5.94432 10.3748 4.31932 9.87989 2.9237 9.0165C2.65448 8.84996 2.30648 9.04934 2.3389 9.37694C2.57797 11.7933 3.82508 13.8159 5.534 14.7575C6.01103 15.0203 6.34476 15.4848 6.67982 15.9512C6.95072 16.3282 7.22251 16.7065 7.57166 16.9805C7.61222 17.0124 7.65455 17.0292 7.69799 17.0292C7.74148 17.0292 7.78381 17.0124 7.82438 16.9805C8.17347 16.7065 8.44526 16.3282 8.71616 15.9512C9.05127 15.4848 9.38501 15.0203 9.86198 14.7575C11.5773 13.8124 12.8273 11.7783 13.0597 9.34999Z" fill="#FFDF6F"/>
<mask id="mask0_19_584" style="mask-type:luminance" maskUnits="userSpaceOnUse" x="2" y="8" width="12" height="10">
<path fill-rule="evenodd" clip-rule="evenodd" d="M13.0597 9.34999C13.0911 9.02198 12.742 8.82394 12.4733 8.992C11.0689 9.8705 9.42966 10.3748 7.67881 10.3748C5.94432 10.3748 4.31932 9.87989 2.9237 9.0165C2.65448 8.84996 2.30648 9.04934 2.3389 9.37694C2.57797 11.7933 3.82508 13.8159 5.534 14.7575C6.01103 15.0203 6.34476 15.4848 6.67982 15.9512C6.95072 16.3282 7.22251 16.7065 7.57166 16.9805C7.61222 17.0124 7.65455 17.0292 7.69799 17.0292C7.74148 17.0292 7.78381 17.0124 7.82438 16.9805C8.17347 16.7065 8.44526 16.3282 8.71616 15.9512C9.05127 15.4848 9.38501 15.0203 9.86198 14.7575C11.5773 13.8124 12.8273 11.7783 13.0597 9.34999Z" fill="black"/>
</mask>
<g mask="url(#mask0_19_584)">
<path d="M5.53392 14.7575L5.26715 15.297L5.53392 14.7575ZM6.67974 15.9512L6.22034 16.3189L6.67974 15.9512ZM7.57158 16.9804L7.22757 17.4689L7.57158 16.9804ZM7.8243 16.9804L7.48028 16.492L7.8243 16.9804ZM8.71608 15.9512L9.17554 16.3189L8.71608 15.9512ZM9.86191 14.7575L10.1287 15.297L9.86191 14.7575ZM12.4732 8.99198L12.7671 9.51558L12.4732 8.99198ZM13.0597 9.34998L12.486 9.28878L13.0597 9.34998ZM12.1793 8.46838C10.8614 9.29281 9.32331 9.76618 7.67873 9.76618V10.9835C9.5358 10.9835 11.2763 10.4482 12.7671 9.51558L12.1793 8.46838ZM7.67873 9.76618C6.04947 9.76618 4.52478 9.30156 3.21517 8.49143L2.63207 9.5416C4.1137 10.4582 5.83897 10.9835 7.67873 10.9835V9.76618ZM1.76534 9.44016C2.02149 12.0291 3.36254 14.2477 5.26715 15.297L5.80073 14.2179C4.28746 13.3842 3.1343 11.5575 2.91229 9.31369L1.76534 9.44016ZM5.26715 15.297C5.60957 15.4856 5.86881 15.8297 6.22034 16.3189L7.1392 15.5834C6.8205 15.1399 6.41232 14.5549 5.80073 14.2179L5.26715 15.297ZM6.22034 16.3189C6.48129 16.6822 6.80104 17.1342 7.22757 17.4689L7.91554 16.492C7.64381 16.2788 7.41999 15.9743 7.1392 15.5834L6.22034 16.3189ZM7.22757 17.4689C7.345 17.5611 7.5051 17.6378 7.69791 17.6378V16.4206C7.80385 16.4206 7.87928 16.4636 7.91554 16.492L7.22757 17.4689ZM7.69791 17.6378C7.89078 17.6378 8.05088 17.5611 8.16831 17.4689L7.48028 16.492C7.51654 16.4636 7.59203 16.4206 7.69791 16.4206V17.6378ZM8.16831 17.4689C8.59478 17.1342 8.91453 16.6822 9.17554 16.3189L8.25668 15.5834C7.97583 15.9742 7.75201 16.2788 7.48028 16.492L8.16831 17.4689ZM9.17554 16.3189C9.52701 15.8297 9.78631 15.4856 10.1287 15.297L9.59515 14.2179C8.9835 14.5549 8.57532 15.1399 8.25668 15.5834L9.17554 16.3189ZM10.1287 15.297C12.0404 14.2438 13.3843 12.0127 13.6333 9.41117L12.486 9.28878C12.2701 11.5439 11.1141 13.381 9.59515 14.2179L10.1287 15.297ZM3.21517 8.49143C2.89389 8.29263 2.51957 8.31042 2.23314 8.48233C1.93902 8.65878 1.72288 9.01094 1.76534 9.44016L2.91229 9.31369C2.91633 9.35447 2.90857 9.40475 2.8843 9.45148C2.86152 9.49534 2.83078 9.52387 2.80308 9.54049C2.74984 9.57246 2.68413 9.5738 2.63207 9.5416L3.21517 8.49143ZM12.7671 9.51558C12.7153 9.54808 12.6495 9.54703 12.5961 9.51529C12.5683 9.49878 12.5374 9.47038 12.5145 9.42657C12.49 9.37984 12.4821 9.32956 12.486 9.28878L13.6333 9.41117C13.6745 8.98143 13.4568 8.62991 13.1618 8.45462C12.8746 8.28388 12.4999 8.26783 12.1793 8.46838L12.7671 9.51558Z" fill="black"/>
</g>
<path d="M7.7171 11.0648C10.5194 11.0648 12.7911 10.2654 12.7911 9.27945C12.7911 8.29345 10.5194 7.49414 7.7171 7.49414C4.91479 7.49414 2.64307 8.29345 2.64307 9.27945C2.64307 10.2654 4.91479 11.0648 7.7171 11.0648Z" fill="black" stroke="black" stroke-width="0.730352"/>
<path d="M3.6427 12.2819C3.6427 12.2819 6.14545 13.1745 7.75576 13.1745C9.36602 13.1745 11.8688 12.2819 11.8688 12.2819" stroke="black" stroke-width="0.730352" stroke-linecap="round"/>
<path d="M2.94483 2.8561C2.31118 2.8561 1.7975 2.31389 1.7975 1.64503C1.7975 0.976175 2.31118 0.43396 2.94483 0.43396C3.57849 0.43396 4.09216 0.976175 4.09216 1.64503C4.09216 2.31389 3.57849 2.8561 2.94483 2.8561Z" fill="black"/>
<path d="M2.75354 1.46338L4.89522 3.72406" stroke="black" stroke-width="0.726642"/>
<path d="M12.3147 2.8561C12.9483 2.8561 13.462 2.31389 13.462 1.64503C13.462 0.976175 12.9483 0.43396 12.3147 0.43396C11.681 0.43396 11.1674 0.976175 11.1674 1.64503C11.1674 2.31389 11.681 2.8561 12.3147 2.8561Z" fill="black"/>
<path d="M12.5251 1.46338L10.3834 3.72406" stroke="black" stroke-width="0.726642"/>
<path fill-rule="evenodd" clip-rule="evenodd" d="M3.2705 8.87184C2.65213 8.56116 2.29224 7.86331 2.4128 7.15171C2.93021 4.09737 5.08652 1.80652 7.66801 1.80652C10.2558 1.80652 12.4163 4.10846 12.927 7.17393C13.0457 7.88682 12.6829 8.58431 12.0624 8.89255C10.7347 9.55206 9.25174 9.92073 7.68713 9.92073C6.10633 9.92073 4.60875 9.54436 3.2705 8.87184Z" fill="#FFDF6F"/>
<path d="M12.9269 7.17396L12.6444 7.22641L12.9269 7.17396ZM2.69508 7.205C3.19505 4.25374 5.2617 2.10932 7.66795 2.10932V1.50378C4.91121 1.50378 2.66525 3.94107 2.13038 7.09842L2.69508 7.205ZM7.66795 2.10932C10.08 2.10932 12.1509 4.26418 12.6444 7.22641L13.2094 7.12152C12.6815 3.9528 10.4314 1.50378 7.66795 1.50378V2.10932ZM11.9402 8.61859C10.6499 9.25956 9.20857 9.61796 7.68707 9.61796V10.2235C9.29478 10.2235 10.8194 9.84458 12.1845 9.16651L11.9402 8.61859ZM7.68707 9.61796C6.14981 9.61796 4.69428 9.25203 3.39373 8.59852L3.14715 9.14528C4.52309 9.83671 6.06272 10.2235 7.68707 10.2235V9.61796ZM12.6444 7.22641C12.7396 7.79796 12.4497 8.36554 11.9402 8.61859L12.1845 9.16651C12.9161 8.80316 13.3517 7.97576 13.2094 7.12152L12.6444 7.22641ZM2.13038 7.09842C1.98592 7.95114 2.41813 8.77895 3.14715 9.14528L3.39373 8.59852C2.886 8.34337 2.59844 7.77556 2.69508 7.205L2.13038 7.09842Z" fill="black"/>
<path fill-rule="evenodd" clip-rule="evenodd" d="M4.37379 8.1125C3.87603 7.89854 3.58077 7.33953 3.75324 6.80222C4.28515 5.1452 5.83676 3.94604 7.66796 3.94604C9.49922 3.94604 11.0508 5.1452 11.5827 6.80222C11.7552 7.33953 11.46 7.89854 10.9621 8.1125C9.94552 8.54954 8.83341 8.79034 7.66796 8.79034C6.50257 8.79034 5.39043 8.54954 4.37379 8.1125Z" fill="black"/>
<path d="M8.98748 7.33717C9.51552 7.33717 9.94359 6.9757 9.94359 6.52979C9.94359 6.08389 9.51552 5.72241 8.98748 5.72241C8.45944 5.72241 8.03137 6.08389 8.03137 6.52979C8.03137 6.9757 8.45944 7.33717 8.98748 7.33717Z" fill="white"/>
<path d="M6.25042 7.33754C6.77846 7.33754 7.20653 6.97606 7.20653 6.53016C7.20653 6.08425 6.77846 5.72278 6.25042 5.72278C5.72238 5.72278 5.29431 6.08425 5.29431 6.53016C5.29431 6.97606 5.72238 7.33754 6.25042 7.33754Z" fill="white"/>
</svg>
