<svg width="1728" height="1801" viewBox="0 0 1728 1801" fill="none" xmlns="http://www.w3.org/2000/svg">
<rect opacity="0.08" x="1100" y="343" width="66" height="99" fill="url(#paint0_linear_46_5776)"/>
<g opacity="0.4" filter="url(#filter0_f_46_5776)">
<path d="M611.5 208C606.3 206.8 509.667 188.167 459.5 152L355 4.5L459.5 -85V-125.5L841.5 -136L947.5 -9L1087 63.5L1183.5 152L974.5 169.5L823.5 197C789 214.333 846.8 368.1 836 372.5C822.5 378 618 209.5 611.5 208Z" fill="url(#paint1_linear_46_5776)"/>
</g>
<g opacity="0.12" filter="url(#filter1_f_46_5776)">
<path d="M38 25L213.5 -137L408 -92.5L654.5 -39L442.5 25L527 190L142.5 179.5L38 25Z" fill="url(#paint2_linear_46_5776)"/>
</g>
<rect opacity="0.08" x="850" width="1" height="1800" fill="url(#paint3_linear_46_5776)"/>
<rect opacity="0.08" x="833" width="1" height="1800" fill="url(#paint4_linear_46_5776)"/>
<rect opacity="0.08" x="808" width="1" height="1800" fill="url(#paint5_linear_46_5776)"/>
<rect opacity="0.08" x="775" width="1" height="1800" fill="url(#paint6_linear_46_5776)"/>
<rect opacity="0.08" x="734" width="1" height="1800" fill="url(#paint7_linear_46_5776)"/>
<rect opacity="0.08" x="685" width="1" height="1800" fill="url(#paint8_linear_46_5776)"/>
<rect opacity="0.08" x="628" width="1" height="1800" fill="url(#paint9_linear_46_5776)"/>
<rect opacity="0.08" x="563" width="1" height="1800" fill="url(#paint10_linear_46_5776)"/>
<rect opacity="0.08" x="490" width="1" height="1800" fill="url(#paint11_linear_46_5776)"/>
<rect opacity="0.08" x="409" width="1" height="1800" fill="url(#paint12_linear_46_5776)"/>
<rect opacity="0.08" x="320" width="1" height="1800" fill="url(#paint13_linear_46_5776)"/>
<rect opacity="0.08" x="223" width="1" height="1800" fill="url(#paint14_linear_46_5776)"/>
<rect opacity="0.08" x="118" width="1" height="1800" fill="url(#paint15_linear_46_5776)"/>
<rect opacity="0.08" x="878" width="1" height="1800" fill="url(#paint16_linear_46_5776)"/>
<rect opacity="0.08" x="895" width="1" height="1800" fill="url(#paint17_linear_46_5776)"/>
<rect opacity="0.08" x="920" width="1" height="1800" fill="url(#paint18_linear_46_5776)"/>
<rect opacity="0.08" x="953" width="1" height="1800" fill="url(#paint19_linear_46_5776)"/>
<rect opacity="0.08" x="994" width="1" height="1800" fill="url(#paint20_linear_46_5776)"/>
<rect opacity="0.08" x="1043" width="1" height="1800" fill="url(#paint21_linear_46_5776)"/>
<rect opacity="0.08" x="1100" width="1" height="1800" fill="url(#paint22_linear_46_5776)"/>
<rect opacity="0.08" x="1165" width="1" height="1800" fill="url(#paint23_linear_46_5776)"/>
<rect opacity="0.08" x="1238" width="1" height="1800" fill="url(#paint24_linear_46_5776)"/>
<rect opacity="0.08" x="1319" width="1" height="1800" fill="url(#paint25_linear_46_5776)"/>
<rect opacity="0.08" x="1408" width="1" height="1800" fill="url(#paint26_linear_46_5776)"/>
<rect opacity="0.08" x="1505" width="1" height="1800" fill="url(#paint27_linear_46_5776)"/>
<rect opacity="0.08" x="1602" width="1" height="1800" fill="url(#paint28_linear_46_5776)"/>
<rect opacity="0.08" x="994" y="118" width="50" height="118" fill="url(#paint29_linear_46_5776)"/>
<rect opacity="0.08" y="913.234" width="1.21279" height="1728" transform="rotate(-90 0 913.234)" fill="url(#paint30_linear_46_5776)"/>
<rect opacity="0.08" y="933.852" width="1.21279" height="1728" transform="rotate(-90 0 933.852)" fill="url(#paint31_linear_46_5776)"/>
<rect opacity="0.08" y="964.172" width="1.21279" height="1728" transform="rotate(-90 0 964.172)" fill="url(#paint32_linear_46_5776)"/>
<rect opacity="0.08" y="1004.19" width="1.21279" height="1728" transform="rotate(-90 0 1004.19)" fill="url(#paint33_linear_46_5776)"/>
<rect opacity="0.08" y="1053.92" width="1.21279" height="1728" transform="rotate(-90 0 1053.92)" fill="url(#paint34_linear_46_5776)"/>
<rect opacity="0.08" y="1113.35" width="1.21279" height="1728" transform="rotate(-90 0 1113.35)" fill="url(#paint35_linear_46_5776)"/>
<rect opacity="0.08" y="1182.47" width="1.21279" height="1728" transform="rotate(-90 0 1182.47)" fill="url(#paint36_linear_46_5776)"/>
<rect opacity="0.08" y="1261.31" width="1.21279" height="1728" transform="rotate(-90 0 1261.31)" fill="url(#paint37_linear_46_5776)"/>
<rect opacity="0.08" y="1349.84" width="1.21279" height="1728" transform="rotate(-90 0 1349.84)" fill="url(#paint38_linear_46_5776)"/>
<rect opacity="0.08" y="1448.08" width="1.21279" height="1728" transform="rotate(-90 0 1448.08)" fill="url(#paint39_linear_46_5776)"/>
<rect opacity="0.08" y="1556.02" width="1.21279" height="1728" transform="rotate(-90 0 1556.02)" fill="url(#paint40_linear_46_5776)"/>
<rect opacity="0.08" y="1673.66" width="1.21279" height="1728" transform="rotate(-90 0 1673.66)" fill="url(#paint41_linear_46_5776)"/>
<rect opacity="0.08" y="1801" width="1.21279" height="1728" transform="rotate(-90 0 1801)" fill="url(#paint42_linear_46_5776)"/>
<rect opacity="0.08" y="879.276" width="1.21279" height="1728" transform="rotate(-90 0 879.276)" fill="url(#paint43_linear_46_5776)"/>
<rect opacity="0.08" y="858.659" width="1.21279" height="1728" transform="rotate(-90 0 858.659)" fill="url(#paint44_linear_46_5776)"/>
<rect opacity="0.08" y="828.339" width="1.21279" height="1728" transform="rotate(-90 0 828.339)" fill="url(#paint45_linear_46_5776)"/>
<rect opacity="0.08" y="788.317" width="1.21279" height="1728" transform="rotate(-90 0 788.317)" fill="url(#paint46_linear_46_5776)"/>
<rect opacity="0.08" y="738.592" width="1.21279" height="1728" transform="rotate(-90 0 738.592)" fill="url(#paint47_linear_46_5776)"/>
<rect opacity="0.08" y="679.165" width="1.21279" height="1728" transform="rotate(-90 0 679.165)" fill="url(#paint48_linear_46_5776)"/>
<rect opacity="0.08" y="610.036" width="1.21279" height="1728" transform="rotate(-90 0 610.036)" fill="url(#paint49_linear_46_5776)"/>
<rect opacity="0.08" y="531.204" width="1.21279" height="1728" transform="rotate(-90 0 531.204)" fill="url(#paint50_linear_46_5776)"/>
<rect opacity="0.08" y="442.67" width="1.21279" height="1728" transform="rotate(-90 0 442.67)" fill="url(#paint51_linear_46_5776)"/>
<rect opacity="0.08" y="344.434" width="1.21279" height="1728" transform="rotate(-90 0 344.434)" fill="url(#paint52_linear_46_5776)"/>
<rect opacity="0.08" y="236.495" width="1.21279" height="1728" transform="rotate(-90 0 236.495)" fill="url(#paint53_linear_46_5776)"/>
<rect opacity="0.08" y="118.854" width="1.21279" height="1728" transform="rotate(-90 0 118.854)" fill="url(#paint54_linear_46_5776)"/>
<rect opacity="0.08" y="1.21277" width="1.21279" height="1728" transform="rotate(-90 0 1.21277)" fill="url(#paint55_linear_46_5776)"/>
<rect y="1051" width="1728" height="751" fill="url(#paint56_linear_46_5776)"/>
<rect opacity="0.08" x="320" y="343" width="90" height="100" fill="url(#paint57_linear_46_5776)"/>
<rect opacity="0.12" x="118" y="235" width="106" height="109" fill="url(#paint58_linear_46_5776)"/>
<rect opacity="0.04" x="563" y="344" width="66" height="94" fill="url(#paint59_linear_46_5776)"/>
<rect opacity="0.08" x="563" y="118" width="66" height="118" fill="url(#paint60_linear_46_5776)"/>
<rect opacity="0.08" x="734" y="236" width="42" height="108" fill="url(#paint61_linear_46_5776)"/>
<rect opacity="0.08" x="1408" y="118" width="98" height="118" fill="url(#paint62_linear_46_5776)"/>
<rect opacity="0.16" x="1505" y="235" width="98" height="109" fill="url(#paint63_linear_46_5776)"/>
<rect opacity="0.1" x="118" y="678" width="105" height="60" fill="url(#paint64_linear_46_5776)"/>
<rect opacity="0.16" x="1505" y="608" width="98" height="71" fill="url(#paint65_linear_46_5776)"/>
<defs>
<filter id="filter0_f_46_5776" x="165" y="-326" width="1208.5" height="888.632" filterUnits="userSpaceOnUse" color-interpolation-filters="sRGB">
<feFlood flood-opacity="0" result="BackgroundImageFix"/>
<feBlend mode="normal" in="SourceGraphic" in2="BackgroundImageFix" result="shape"/>
<feGaussianBlur stdDeviation="95" result="effect1_foregroundBlur_46_5776"/>
</filter>
<filter id="filter1_f_46_5776" x="-152" y="-327" width="996.5" height="707" filterUnits="userSpaceOnUse" color-interpolation-filters="sRGB">
<feFlood flood-opacity="0" result="BackgroundImageFix"/>
<feBlend mode="normal" in="SourceGraphic" in2="BackgroundImageFix" result="shape"/>
<feGaussianBlur stdDeviation="95" result="effect1_foregroundBlur_46_5776"/>
</filter>
<linearGradient id="paint0_linear_46_5776" x1="1166.08" y1="311.207" x2="1062.54" y2="407.355" gradientUnits="userSpaceOnUse">
<stop stop-color="#5684C9"/>
<stop offset="1" stop-color="#D3A7FF"/>
</linearGradient>
<linearGradient id="paint1_linear_46_5776" x1="1184.47" y1="-299.341" x2="790.749" y2="593.964" gradientUnits="userSpaceOnUse">
<stop stop-color="#5684C9"/>
<stop offset="1" stop-color="#D3A7FF"/>
</linearGradient>
<linearGradient id="paint2_linear_46_5776" x1="563.064" y1="-177.875" x2="642.099" y2="205.071" gradientUnits="userSpaceOnUse">
<stop stop-color="#46BFEE"/>
<stop offset="1" stop-color="#1ADACE"/>
</linearGradient>
<linearGradient id="paint3_linear_46_5776" x1="850.852" y1="-225" x2="853.99" y2="-224.996" gradientUnits="userSpaceOnUse">
<stop stop-color="#46BFEE"/>
<stop offset="1" stop-color="#1ADACE"/>
</linearGradient>
<linearGradient id="paint4_linear_46_5776" x1="833.852" y1="-225" x2="836.99" y2="-224.996" gradientUnits="userSpaceOnUse">
<stop stop-color="#46BFEE"/>
<stop offset="1" stop-color="#1ADACE"/>
</linearGradient>
<linearGradient id="paint5_linear_46_5776" x1="808.852" y1="-225" x2="811.99" y2="-224.996" gradientUnits="userSpaceOnUse">
<stop stop-color="#46BFEE"/>
<stop offset="1" stop-color="#1ADACE"/>
</linearGradient>
<linearGradient id="paint6_linear_46_5776" x1="775.852" y1="-225" x2="778.99" y2="-224.996" gradientUnits="userSpaceOnUse">
<stop stop-color="#46BFEE"/>
<stop offset="1" stop-color="#1ADACE"/>
</linearGradient>
<linearGradient id="paint7_linear_46_5776" x1="734.852" y1="-225" x2="737.99" y2="-224.996" gradientUnits="userSpaceOnUse">
<stop stop-color="#46BFEE"/>
<stop offset="1" stop-color="#1ADACE"/>
</linearGradient>
<linearGradient id="paint8_linear_46_5776" x1="685.852" y1="-225" x2="688.99" y2="-224.996" gradientUnits="userSpaceOnUse">
<stop stop-color="#46BFEE"/>
<stop offset="1" stop-color="#1ADACE"/>
</linearGradient>
<linearGradient id="paint9_linear_46_5776" x1="628.852" y1="-225" x2="631.99" y2="-224.996" gradientUnits="userSpaceOnUse">
<stop stop-color="#46BFEE"/>
<stop offset="1" stop-color="#1ADACE"/>
</linearGradient>
<linearGradient id="paint10_linear_46_5776" x1="563.852" y1="-225" x2="566.99" y2="-224.996" gradientUnits="userSpaceOnUse">
<stop stop-color="#46BFEE"/>
<stop offset="1" stop-color="#1ADACE"/>
</linearGradient>
<linearGradient id="paint11_linear_46_5776" x1="490.852" y1="-225" x2="493.99" y2="-224.996" gradientUnits="userSpaceOnUse">
<stop stop-color="#46BFEE"/>
<stop offset="1" stop-color="#1ADACE"/>
</linearGradient>
<linearGradient id="paint12_linear_46_5776" x1="409.852" y1="-225" x2="412.99" y2="-224.996" gradientUnits="userSpaceOnUse">
<stop stop-color="#46BFEE"/>
<stop offset="1" stop-color="#1ADACE"/>
</linearGradient>
<linearGradient id="paint13_linear_46_5776" x1="320.852" y1="-225" x2="323.99" y2="-224.996" gradientUnits="userSpaceOnUse">
<stop stop-color="#46BFEE"/>
<stop offset="1" stop-color="#1ADACE"/>
</linearGradient>
<linearGradient id="paint14_linear_46_5776" x1="223.852" y1="-225" x2="226.99" y2="-224.996" gradientUnits="userSpaceOnUse">
<stop stop-color="#46BFEE"/>
<stop offset="1" stop-color="#1ADACE"/>
</linearGradient>
<linearGradient id="paint15_linear_46_5776" x1="118.852" y1="-225" x2="121.99" y2="-224.996" gradientUnits="userSpaceOnUse">
<stop stop-color="#46BFEE"/>
<stop offset="1" stop-color="#1ADACE"/>
</linearGradient>
<linearGradient id="paint16_linear_46_5776" x1="878.852" y1="-225" x2="881.99" y2="-224.996" gradientUnits="userSpaceOnUse">
<stop stop-color="#46BFEE"/>
<stop offset="1" stop-color="#1ADACE"/>
</linearGradient>
<linearGradient id="paint17_linear_46_5776" x1="895.852" y1="-225" x2="898.99" y2="-224.996" gradientUnits="userSpaceOnUse">
<stop stop-color="#46BFEE"/>
<stop offset="1" stop-color="#1ADACE"/>
</linearGradient>
<linearGradient id="paint18_linear_46_5776" x1="920.852" y1="-225" x2="923.99" y2="-224.996" gradientUnits="userSpaceOnUse">
<stop stop-color="#46BFEE"/>
<stop offset="1" stop-color="#1ADACE"/>
</linearGradient>
<linearGradient id="paint19_linear_46_5776" x1="953.852" y1="-225" x2="956.99" y2="-224.996" gradientUnits="userSpaceOnUse">
<stop stop-color="#46BFEE"/>
<stop offset="1" stop-color="#1ADACE"/>
</linearGradient>
<linearGradient id="paint20_linear_46_5776" x1="994.852" y1="-225" x2="997.99" y2="-224.996" gradientUnits="userSpaceOnUse">
<stop stop-color="#46BFEE"/>
<stop offset="1" stop-color="#1ADACE"/>
</linearGradient>
<linearGradient id="paint21_linear_46_5776" x1="1043.85" y1="-225" x2="1046.99" y2="-224.996" gradientUnits="userSpaceOnUse">
<stop stop-color="#46BFEE"/>
<stop offset="1" stop-color="#1ADACE"/>
</linearGradient>
<linearGradient id="paint22_linear_46_5776" x1="1100.85" y1="-225" x2="1103.99" y2="-224.996" gradientUnits="userSpaceOnUse">
<stop stop-color="#46BFEE"/>
<stop offset="1" stop-color="#1ADACE"/>
</linearGradient>
<linearGradient id="paint23_linear_46_5776" x1="1165.85" y1="-225" x2="1168.99" y2="-224.996" gradientUnits="userSpaceOnUse">
<stop stop-color="#46BFEE"/>
<stop offset="1" stop-color="#1ADACE"/>
</linearGradient>
<linearGradient id="paint24_linear_46_5776" x1="1238.85" y1="-225" x2="1241.99" y2="-224.996" gradientUnits="userSpaceOnUse">
<stop stop-color="#46BFEE"/>
<stop offset="1" stop-color="#1ADACE"/>
</linearGradient>
<linearGradient id="paint25_linear_46_5776" x1="1319.85" y1="-225" x2="1322.99" y2="-224.996" gradientUnits="userSpaceOnUse">
<stop stop-color="#46BFEE"/>
<stop offset="1" stop-color="#1ADACE"/>
</linearGradient>
<linearGradient id="paint26_linear_46_5776" x1="1408.85" y1="-225" x2="1411.99" y2="-224.996" gradientUnits="userSpaceOnUse">
<stop stop-color="#46BFEE"/>
<stop offset="1" stop-color="#1ADACE"/>
</linearGradient>
<linearGradient id="paint27_linear_46_5776" x1="1505.85" y1="-225" x2="1508.99" y2="-224.996" gradientUnits="userSpaceOnUse">
<stop stop-color="#46BFEE"/>
<stop offset="1" stop-color="#1ADACE"/>
</linearGradient>
<linearGradient id="paint28_linear_46_5776" x1="1602.85" y1="-225" x2="1605.99" y2="-224.996" gradientUnits="userSpaceOnUse">
<stop stop-color="#46BFEE"/>
<stop offset="1" stop-color="#1ADACE"/>
</linearGradient>
<linearGradient id="paint29_linear_46_5776" x1="1044.06" y1="80.1057" x2="935.72" y2="144.048" gradientUnits="userSpaceOnUse">
<stop stop-color="#5684C9"/>
<stop offset="1" stop-color="#D3A7FF"/>
</linearGradient>
<linearGradient id="paint30_linear_46_5776" x1="1.03292" y1="697.234" x2="4.83853" y2="697.241" gradientUnits="userSpaceOnUse">
<stop stop-color="#46BFEE"/>
<stop offset="1" stop-color="#1ADACE"/>
</linearGradient>
<linearGradient id="paint31_linear_46_5776" x1="1.03292" y1="717.852" x2="4.83853" y2="717.859" gradientUnits="userSpaceOnUse">
<stop stop-color="#46BFEE"/>
<stop offset="1" stop-color="#1ADACE"/>
</linearGradient>
<linearGradient id="paint32_linear_46_5776" x1="1.03292" y1="748.172" x2="4.83853" y2="748.179" gradientUnits="userSpaceOnUse">
<stop stop-color="#46BFEE"/>
<stop offset="1" stop-color="#1ADACE"/>
</linearGradient>
<linearGradient id="paint33_linear_46_5776" x1="1.03292" y1="788.194" x2="4.83853" y2="788.201" gradientUnits="userSpaceOnUse">
<stop stop-color="#46BFEE"/>
<stop offset="1" stop-color="#1ADACE"/>
</linearGradient>
<linearGradient id="paint34_linear_46_5776" x1="1.03292" y1="837.918" x2="4.83853" y2="837.925" gradientUnits="userSpaceOnUse">
<stop stop-color="#46BFEE"/>
<stop offset="1" stop-color="#1ADACE"/>
</linearGradient>
<linearGradient id="paint35_linear_46_5776" x1="1.03292" y1="897.345" x2="4.83853" y2="897.352" gradientUnits="userSpaceOnUse">
<stop stop-color="#46BFEE"/>
<stop offset="1" stop-color="#1ADACE"/>
</linearGradient>
<linearGradient id="paint36_linear_46_5776" x1="1.03292" y1="966.475" x2="4.83853" y2="966.482" gradientUnits="userSpaceOnUse">
<stop stop-color="#46BFEE"/>
<stop offset="1" stop-color="#1ADACE"/>
</linearGradient>
<linearGradient id="paint37_linear_46_5776" x1="1.03292" y1="1045.31" x2="4.83853" y2="1045.31" gradientUnits="userSpaceOnUse">
<stop stop-color="#46BFEE"/>
<stop offset="1" stop-color="#1ADACE"/>
</linearGradient>
<linearGradient id="paint38_linear_46_5776" x1="1.03292" y1="1133.84" x2="4.83853" y2="1133.85" gradientUnits="userSpaceOnUse">
<stop stop-color="#46BFEE"/>
<stop offset="1" stop-color="#1ADACE"/>
</linearGradient>
<linearGradient id="paint39_linear_46_5776" x1="1.03292" y1="1232.08" x2="4.83853" y2="1232.08" gradientUnits="userSpaceOnUse">
<stop stop-color="#46BFEE"/>
<stop offset="1" stop-color="#1ADACE"/>
</linearGradient>
<linearGradient id="paint40_linear_46_5776" x1="1.03292" y1="1340.02" x2="4.83853" y2="1340.02" gradientUnits="userSpaceOnUse">
<stop stop-color="#46BFEE"/>
<stop offset="1" stop-color="#1ADACE"/>
</linearGradient>
<linearGradient id="paint41_linear_46_5776" x1="1.03292" y1="1457.66" x2="4.83853" y2="1457.66" gradientUnits="userSpaceOnUse">
<stop stop-color="#46BFEE"/>
<stop offset="1" stop-color="#1ADACE"/>
</linearGradient>
<linearGradient id="paint42_linear_46_5776" x1="1.03292" y1="1585" x2="4.83853" y2="1585.01" gradientUnits="userSpaceOnUse">
<stop stop-color="#46BFEE"/>
<stop offset="1" stop-color="#1ADACE"/>
</linearGradient>
<linearGradient id="paint43_linear_46_5776" x1="1.03292" y1="663.276" x2="4.83853" y2="663.283" gradientUnits="userSpaceOnUse">
<stop stop-color="#46BFEE"/>
<stop offset="1" stop-color="#1ADACE"/>
</linearGradient>
<linearGradient id="paint44_linear_46_5776" x1="1.03292" y1="642.659" x2="4.83853" y2="642.665" gradientUnits="userSpaceOnUse">
<stop stop-color="#46BFEE"/>
<stop offset="1" stop-color="#1ADACE"/>
</linearGradient>
<linearGradient id="paint45_linear_46_5776" x1="1.03292" y1="612.339" x2="4.83853" y2="612.346" gradientUnits="userSpaceOnUse">
<stop stop-color="#46BFEE"/>
<stop offset="1" stop-color="#1ADACE"/>
</linearGradient>
<linearGradient id="paint46_linear_46_5776" x1="1.03292" y1="572.317" x2="4.83853" y2="572.323" gradientUnits="userSpaceOnUse">
<stop stop-color="#46BFEE"/>
<stop offset="1" stop-color="#1ADACE"/>
</linearGradient>
<linearGradient id="paint47_linear_46_5776" x1="1.03292" y1="522.592" x2="4.83853" y2="522.599" gradientUnits="userSpaceOnUse">
<stop stop-color="#46BFEE"/>
<stop offset="1" stop-color="#1ADACE"/>
</linearGradient>
<linearGradient id="paint48_linear_46_5776" x1="1.03292" y1="463.165" x2="4.83853" y2="463.172" gradientUnits="userSpaceOnUse">
<stop stop-color="#46BFEE"/>
<stop offset="1" stop-color="#1ADACE"/>
</linearGradient>
<linearGradient id="paint49_linear_46_5776" x1="1.03292" y1="394.036" x2="4.83853" y2="394.042" gradientUnits="userSpaceOnUse">
<stop stop-color="#46BFEE"/>
<stop offset="1" stop-color="#1ADACE"/>
</linearGradient>
<linearGradient id="paint50_linear_46_5776" x1="1.03292" y1="315.204" x2="4.83853" y2="315.211" gradientUnits="userSpaceOnUse">
<stop stop-color="#46BFEE"/>
<stop offset="1" stop-color="#1ADACE"/>
</linearGradient>
<linearGradient id="paint51_linear_46_5776" x1="1.03292" y1="226.67" x2="4.83853" y2="226.677" gradientUnits="userSpaceOnUse">
<stop stop-color="#46BFEE"/>
<stop offset="1" stop-color="#1ADACE"/>
</linearGradient>
<linearGradient id="paint52_linear_46_5776" x1="1.03292" y1="128.434" x2="4.83853" y2="128.441" gradientUnits="userSpaceOnUse">
<stop stop-color="#46BFEE"/>
<stop offset="1" stop-color="#1ADACE"/>
</linearGradient>
<linearGradient id="paint53_linear_46_5776" x1="1.03292" y1="20.495" x2="4.83853" y2="20.5018" gradientUnits="userSpaceOnUse">
<stop stop-color="#46BFEE"/>
<stop offset="1" stop-color="#1ADACE"/>
</linearGradient>
<linearGradient id="paint54_linear_46_5776" x1="1.03292" y1="-97.1461" x2="4.83853" y2="-97.1393" gradientUnits="userSpaceOnUse">
<stop stop-color="#46BFEE"/>
<stop offset="1" stop-color="#1ADACE"/>
</linearGradient>
<linearGradient id="paint55_linear_46_5776" x1="1.03292" y1="-214.787" x2="4.83853" y2="-214.78" gradientUnits="userSpaceOnUse">
<stop stop-color="#46BFEE"/>
<stop offset="1" stop-color="#1ADACE"/>
</linearGradient>
<linearGradient id="paint56_linear_46_5776" x1="864" y1="878.5" x2="864" y2="1698.5" gradientUnits="userSpaceOnUse">
<stop stop-color="white" stop-opacity="0"/>
<stop offset="1" stop-color="white"/>
</linearGradient>
<linearGradient id="paint57_linear_46_5776" x1="396.652" y1="330.5" x2="441.126" y2="433.369" gradientUnits="userSpaceOnUse">
<stop stop-color="#46BFEE"/>
<stop offset="1" stop-color="#1ADACE"/>
</linearGradient>
<linearGradient id="paint58_linear_46_5776" x1="208.279" y1="221.375" x2="254.18" y2="336.095" gradientUnits="userSpaceOnUse">
<stop stop-color="#46BFEE"/>
<stop offset="1" stop-color="#1ADACE"/>
</linearGradient>
<linearGradient id="paint59_linear_46_5776" x1="619.211" y1="332.25" x2="667.871" y2="420.055" gradientUnits="userSpaceOnUse">
<stop stop-color="#46BFEE"/>
<stop offset="1" stop-color="#1ADACE"/>
</linearGradient>
<linearGradient id="paint60_linear_46_5776" x1="629.077" y1="80.1057" x2="509.085" y2="173.589" gradientUnits="userSpaceOnUse">
<stop stop-color="#5684C9"/>
<stop offset="1" stop-color="#D3A7FF"/>
</linearGradient>
<linearGradient id="paint61_linear_46_5776" x1="776.049" y1="201.317" x2="681.18" y2="252.706" gradientUnits="userSpaceOnUse">
<stop stop-color="#5684C9"/>
<stop offset="1" stop-color="#D3A7FF"/>
</linearGradient>
<linearGradient id="paint62_linear_46_5776" x1="1506.11" y1="80.1057" x2="1383.67" y2="221.757" gradientUnits="userSpaceOnUse">
<stop stop-color="#5684C9"/>
<stop offset="1" stop-color="#D3A7FF"/>
</linearGradient>
<linearGradient id="paint63_linear_46_5776" x1="1603.11" y1="199.996" x2="1491.64" y2="339.603" gradientUnits="userSpaceOnUse">
<stop stop-color="#5684C9"/>
<stop offset="1" stop-color="#D3A7FF"/>
</linearGradient>
<linearGradient id="paint64_linear_46_5776" x1="207.427" y1="670.5" x2="222.948" y2="740.307" gradientUnits="userSpaceOnUse">
<stop stop-color="#46BFEE"/>
<stop offset="1" stop-color="#1ADACE"/>
</linearGradient>
<linearGradient id="paint65_linear_46_5776" x1="1603.11" y1="585.199" x2="1542.15" y2="702.41" gradientUnits="userSpaceOnUse">
<stop stop-color="#5684C9"/>
<stop offset="1" stop-color="#D3A7FF"/>
</linearGradient>
</defs>
</svg>
