<svg width="22" height="22" viewBox="0 0 22 22" fill="none" xmlns="http://www.w3.org/2000/svg">
<path d="M13.2039 20.547C13.2039 20.7971 13.4028 20.9999 13.6482 20.9999C13.6903 20.9999 13.7322 20.9938 13.7726 20.9818C19.0774 19.4211 22.1365 13.7729 20.6053 8.36619C19.074 2.95948 13.5322 -0.158348 8.22739 1.40233C2.92255 2.96301 -0.136521 8.6112 1.39474 14.0179C2.34733 17.3813 4.92732 20.0109 8.22738 20.9818C8.46296 21.0518 8.70964 20.9139 8.77835 20.6738C8.79014 20.6326 8.79612 20.5899 8.79612 20.547V18.4186C7.53069 18.8082 6.18653 18.1252 5.73025 16.8607C5.48183 16.0899 5.0691 15.3847 4.52167 14.7957C7.05435 15.4206 7.09878 17.0962 8.82278 16.3082C8.87489 15.7205 9.06708 15.1546 9.38264 14.6598C7.42759 14.4334 5.3659 14.1164 5.3659 10.6746C5.34893 9.78526 5.66695 8.92308 6.25456 8.26538C5.9869 7.49166 6.01868 6.64305 6.34342 5.89238C6.34342 5.89238 7.08101 5.64783 8.76946 6.7981C10.2233 6.38882 11.7589 6.38882 13.2128 6.7981C14.8923 5.63878 15.6299 5.89238 15.6299 5.89238C15.9547 6.64305 15.9864 7.49166 15.7188 8.26538C16.3072 8.92259 16.6253 9.7851 16.6074 10.6746C16.6074 14.1254 14.5457 14.4334 12.5818 14.6507C13.0024 15.2688 13.2145 16.0095 13.1861 16.7611L13.2039 20.547Z" stroke="#455D65" stroke-width="1.5" stroke-linecap="round" stroke-linejoin="round"/>
</svg>
