<?xml version="1.0" encoding="UTF-8"?>
<svg width="1700px" height="1200px" viewBox="0 0 1700 1200" version="1.1" xmlns="http://www.w3.org/2000/svg" xmlns:xlink="http://www.w3.org/1999/xlink">
    <!-- Generator: Sketch 56.1 (81669) - https://sketch.com -->
    <title>Advertise</title>
    <desc>Created with Sketch.</desc>
    <defs>
        <rect id="path-1" x="0" y="-9.09494702e-13" width="484.932563" height="363" rx="20"></rect>
    </defs>
    <g id="Advertise" stroke="none" stroke-width="1" fill="none" fill-rule="evenodd">
        <g id="UI-/-Content-/-Video" transform="translate(277.000000, 652.000000)">
            <g id="Video" transform="translate(7.314050, 27.783607)">
                <g id="Text" transform="translate(0.000000, 165.970492)" fill="#E1E5F0" fill-rule="nonzero">
                    <rect x="0" y="0" width="280.128099" height="29.2459016" rx="2"></rect>
                </g>
                <g fill-rule="nonzero">
                    <g>
                        <rect id="Placeholder" fill="#F2F6FB" x="0" y="0" width="339.371901" height="147.691803" rx="4"></rect>
                        <g id="Icons-/-Video" transform="translate(140.175350, 44.307541)" fill="#E1E5F0">
                            <path d="M32.2492715,1.81633251 L62.0150649,61.2919707 C62.26224,61.7858563 62.0622416,62.3866046 61.5683561,62.6337797 C61.4294131,62.7033165 61.2761782,62.7395208 61.120806,62.7395208 L1.58921914,62.7395208 C1.03693439,62.7395208 0.589219144,62.2918055 0.589219144,61.7395208 C0.589219144,61.5841486 0.625423425,61.4309137 0.694960261,61.2919707 L30.4607537,1.81633251 C30.7079288,1.32244697 31.3086771,1.12244861 31.8025626,1.36962368 C31.9958234,1.46634498 32.1525502,1.62307171 32.2492715,1.81633251 Z" id="Video" transform="translate(31.355013, 31.384508) rotate(-270.000000) translate(-31.355013, -31.384508) "></path>
                        </g>
                    </g>
                </g>
            </g>
        </g>
        <g id="UI-/-Headers-/-Header-2-/-1" transform="translate(1062.000000, 593.000000)">
            <g id="Group" stroke-width="1" fill-rule="evenodd">
                <g id="iPhone">
                    <mask id="mask-2" fill="white">
                        <use xlink:href="#path-1"></use>
                    </mask>
                    <use id="Mask" fill="#F2F6FB" fill-rule="nonzero" xlink:href="#path-1"></use>
                    <g id="Devices-/-iPhone" mask="url(#mask-2)">
                        <g transform="translate(242.466281, 134.487830)" id="iPhone">
                            <g>
                                <rect id="Body" fill="#E1E5F0" fill-rule="nonzero" x="0" y="0" width="171.930636" height="331.782093" rx="10"></rect>
                                <ellipse id="Button" fill="#E0E7EC" cx="87.0674374" cy="308.711152" rx="12.1233141" ry="12.0847782"></ellipse>
                                <rect id="Mic" fill="#F2F6FB" fill-rule="nonzero" x="74.9441233" y="19.7750916" width="24.2466281" height="6.59169721" rx="3.2958486"></rect>
                                <rect id="Screen" fill="#F2F6FB" fill-rule="nonzero" x="13.2254335" y="37.3529508" width="145.479769" height="254.878959"></rect>
                                <g id="Icons-/-Mountains" transform="translate(53.689422, 145.017339)" fill="#E1E5F0" fill-rule="nonzero">
                                    <path d="M34.779373,41.3619342 L32.3900453,41.3922797 L32.4090211,41.3619342 L1.75404018,41.3619342 C0.650836857,41.3619342 0.227064067,40.6109671 0.814451284,39.6735358 L22.255086,5.45569677 C22.8393687,4.5232201 23.8139351,4.52103761 24.4193022,5.43259136 L40.0377359,29.1623041 L45.7921645,19.9599808 C46.3796335,19.0205166 47.3657573,18.9949708 47.9897176,19.8956819 L61.3133193,39.1288211 C61.9395253,40.032774 61.5594941,40.7928968 60.4405894,40.8273388 L48.8991094,41.1826071 L47.5658138,41.1995406 L47.6638676,41.3619342 C47.6638676,41.3619342 46.7706565,41.3619342 45.6663413,41.3619342 L34.779373,41.3619342 Z M47.3625144,10.269265 C44.5338471,10.269265 42.2407593,7.9704117 42.2407593,5.13463248 C42.2407593,2.29885327 44.5338471,0 47.3625144,0 C50.1911816,0 52.4842694,2.29885327 52.4842694,5.13463248 C52.4842694,7.9704117 50.1911816,10.269265 47.3625144,10.269265 Z" id="Mountains"></path>
                                </g>
                            </g>
                        </g>
                    </g>
                    <g id="Menu" mask="url(#mask-2)" fill="#E1E5F0" fill-rule="nonzero">
                        <g transform="translate(22.042389, 85.856229)" id="Combined-Shape">
                            <path d="M2.0914622,0.527906486 L15.7253736,0.527906486 C16.8299431,0.527906486 17.7253736,1.42333699 17.7253736,2.52790649 L17.7253736,7.31683609 C17.7253736,8.42140559 16.8299431,9.31683609 15.7253736,9.31683609 L2.0914622,9.31683609 C0.986892696,9.31683609 0.0914621959,8.42140559 0.0914621959,7.31683609 L0.0914621959,2.52790649 C0.0914621959,1.42333699 0.986892696,0.527906486 2.0914622,0.527906486 Z M376.812079,0.527906486 L438.939246,0.527906486 C440.043816,0.527906486 440.939246,1.42333699 440.939246,2.52790649 L440.939246,7.31683609 C440.939246,8.42140559 440.043816,9.31683609 438.939246,9.31683609 L376.812079,9.31683609 C375.707509,9.31683609 374.812079,8.42140559 374.812079,7.31683609 L374.812079,2.52790649 C374.812079,1.42333699 375.707509,0.527906486 376.812079,0.527906486 Z M257.783177,0.527906486 L319.910345,0.527906486 C321.014914,0.527906486 321.910345,1.42333699 321.910345,2.52790649 L321.910345,7.31683609 C321.910345,8.42140559 321.014914,9.31683609 319.910345,9.31683609 L257.783177,9.31683609 C256.678608,9.31683609 255.783177,8.42140559 255.783177,7.31683609 L255.783177,2.52790649 C255.783177,1.42333699 256.678608,0.527906486 257.783177,0.527906486 Z M332.7273,0.527906486 L363.995123,0.527906486 C365.099693,0.527906486 365.995123,1.42333699 365.995123,2.52790649 L365.995123,7.31683609 C365.995123,8.42140559 365.099693,9.31683609 363.995123,9.31683609 L332.7273,9.31683609 C331.622731,9.31683609 330.7273,8.42140559 330.7273,7.31683609 L330.7273,2.52790649 C330.7273,1.42333699 331.622731,0.527906486 332.7273,0.527906486 Z"></path>
                        </g>
                    </g>
                </g>
                <g id="Text" transform="translate(48.493256, 146.506427)" fill="#E1E5F0" fill-rule="nonzero">
                    <path d="M2,0 L130.423892,0 C131.528462,-2.02906125e-16 132.423892,0.8954305 132.423892,2 L132.423892,15.6308046 C132.423892,16.7353741 131.528462,17.6308046 130.423892,17.6308046 L2,17.6308046 C0.8954305,17.6308046 1.3527075e-16,16.7353741 0,15.6308046 L0,2 C-1.3527075e-16,0.8954305 0.8954305,2.02906125e-16 2,0 Z M2,28.6500574 L108.353243,28.6500574 C109.457813,28.6500574 110.353243,29.5454879 110.353243,30.6500574 L110.353243,44.280862 C110.353243,45.3854315 109.457813,46.280862 108.353243,46.280862 L2,46.280862 C0.8954305,46.280862 1.3527075e-16,45.3854315 0,44.280862 L0,30.6500574 C-1.3527075e-16,29.5454879 0.8954305,28.6500574 2,28.6500574 Z M2,85.9501723 L64.2119461,85.9501723 C65.3165155,85.9501723 66.2119461,86.8456028 66.2119461,87.9501723 L66.2119461,101.580977 C66.2119461,102.685546 65.3165155,103.580977 64.2119461,103.580977 L2,103.580977 C0.8954305,103.580977 1.11632554e-15,102.685546 0,101.580977 L0,87.9501723 C-1.3527075e-16,86.8456028 0.8954305,85.9501723 2,85.9501723 Z M2,57.3001149 L130.423892,57.3001149 C131.528462,57.3001149 132.423892,58.1955454 132.423892,59.3001149 L132.423892,72.9309194 C132.423892,74.0354889 131.528462,74.9309194 130.423892,74.9309194 L2,74.9309194 C0.8954305,74.9309194 1.11632554e-15,74.0354889 0,72.9309194 L0,59.3001149 C-1.3527075e-16,58.1955454 0.8954305,57.3001149 2,57.3001149 Z"></path>
                </g>
                <g id="Button" transform="translate(48.493256, 271.550129)" fill="#474BFF" fill-rule="nonzero">
                    <g>
                        <path d="M17.516438,-4.62262169e-16 L101.851577,4.62262169e-16 C106.482727,-3.88466174e-16 109.249914,0.696192084 111.694358,2.00349528 C114.138803,3.31079847 116.057217,5.22921278 117.36452,7.67365722 C118.671823,10.1181017 119.368015,12.8852886 119.368015,17.516438 L119.368015,20.7432021 C119.368015,25.3743515 118.671823,28.1415384 117.36452,30.5859829 C116.057217,33.0304273 114.138803,34.9488416 111.694358,36.2561448 C109.249914,37.563448 106.482727,38.2596401 101.851577,38.2596401 L17.516438,38.2596401 C12.8852886,38.2596401 10.1181017,37.563448 7.67365722,36.2561448 C5.22921278,34.9488416 3.31079847,33.0304273 2.00349528,30.5859829 C0.696192084,28.1415384 2.5897745e-16,25.3743515 -3.08174779e-16,20.7432021 L3.08174779e-16,17.516438 C-2.5897745e-16,12.8852886 0.696192084,10.1181017 2.00349528,7.67365722 C3.31079847,5.22921278 5.22921278,3.31079847 7.67365722,2.00349528 C10.1181017,0.696192084 12.8852886,3.88466174e-16 17.516438,-4.62262169e-16 Z"></path>
                    </g>
                </g>
            </g>
            <path d="M0,20.0033437 C0,8.95580202 8.94491294,0 20.0088718,0 L463.991128,0 C475.041723,0 484,8.95986255 484,20.0033437 L484,41.059126 L0,41.059126 L0,20.0033437 Z" id="Top-bar-Copy" fill="#E1E5F0" fill-rule="nonzero"></path>
            <ellipse id="Burron-Copy" fill="#FF5645" fill-rule="nonzero" cx="27.5105973" cy="20.996144" rx="8.85934489" ry="8.86503856"></ellipse>
            <ellipse id="Burron-Copy-2" fill="#FFCB3D" fill-rule="nonzero" cx="56.4200385" cy="20.996144" rx="8.85934489" ry="8.86503856"></ellipse>
            <ellipse id="Burron-Copy-3" fill="#3ABF7C" fill-rule="nonzero" cx="86.2620424" cy="20.996144" rx="8.85934489" ry="8.86503856"></ellipse>
        </g>
        <g id="UI-/-Headers-/-Header-1-/-1" transform="translate(203.000000, 217.000000)">
            <g id="Header-2" stroke-width="1" fill-rule="evenodd">
                <g id="Header" fill-rule="nonzero">
                    <g id="Browser" fill="#F2F6FB">
                        <g id="Background">
                            <rect x="0" y="0" width="502.967245" height="376" rx="20"></rect>
                        </g>
                    </g>
                    <g id="Menu" transform="translate(22.862147, 73.108670)" fill="#E1E5F0">
                        <path d="M2,0 L16.289718,0 C17.3942875,-2.02906125e-16 18.289718,0.8954305 18.289718,2 L18.289718,7.13858378 C18.289718,8.24315328 17.3942875,9.13858378 16.289718,9.13858378 L2,9.13858378 C0.8954305,9.13858378 1.3527075e-16,8.24315328 0,7.13858378 L0,2 C-1.3527075e-16,0.8954305 0.8954305,2.02906125e-16 2,0 Z M390.656507,0 L455.24295,0 C456.347519,-2.02906125e-16 457.24295,0.8954305 457.24295,2 L457.24295,7.13858378 C457.24295,8.24315328 456.347519,9.13858378 455.24295,9.13858378 L390.656507,9.13858378 C389.551938,9.13858378 388.656507,8.24315328 388.656507,7.13858378 L388.656507,2 C388.656507,0.8954305 389.551938,2.02906125e-16 390.656507,0 Z M267.200911,0 L331.787353,0 C332.891923,-8.05134447e-15 333.787353,0.8954305 333.787353,2 L333.787353,7.13858378 C333.787353,8.24315328 332.891923,9.13858378 331.787353,9.13858378 L267.200911,9.13858378 C266.096341,9.13858378 265.200911,8.24315328 265.200911,7.13858378 L265.200911,2 C265.200911,0.8954305 266.096341,2.02906125e-16 267.200911,0 Z M344.932212,0 L377.511648,0 C378.616218,-2.02906125e-16 379.511648,0.8954305 379.511648,2 L379.511648,7.13858378 C379.511648,8.24315328 378.616218,9.13858378 377.511648,9.13858378 L344.932212,9.13858378 C343.827643,9.13858378 342.932212,8.24315328 342.932212,7.13858378 L342.932212,2 C342.932212,0.8954305 343.827643,2.02906125e-16 344.932212,0 Z" id="Combined-Shape"></path>
                    </g>
                    <g id="Image" transform="translate(22.862147, 109.663005)" fill="#E1E5F0">
                        <rect id="Placeholder" x="0" y="0" width="457.24295" height="237.603178" rx="4"></rect>
                    </g>
                    <g id="Text" transform="translate(137.172885, 214.756719)" fill="#F2F6FB">
                        <rect id="Title" x="0" y="0" width="228.621475" height="18.2771676" rx="2"></rect>
                    </g>
                    <g id="Button" transform="translate(160.035032, 267.303576)" fill="#474BFF">
                        <g>
                            <path d="M18.952937,1.21466712e-16 L163.944243,-5.44807443e-15 C170.299191,3.31053482e-15 172.779078,0.696192084 175.223523,2.00349528 C177.667967,3.31079847 179.586381,5.22921278 180.893685,7.67365722 C182.200988,10.1181017 182.89718,12.5979889 182.89718,18.952937 L182.89718,26.7399819 C182.89718,33.09493 182.200988,35.5748172 180.893685,38.0192617 C179.586381,40.4637061 177.667967,42.3821204 175.223523,43.6894236 C172.779078,44.9967268 170.299191,45.6929189 163.944243,45.6929189 L18.952937,45.6929189 C12.5979889,45.6929189 10.1181017,44.9967268 7.67365722,43.6894236 C5.22921278,42.3821204 3.31079847,40.4637061 2.00349528,38.0192617 C0.696192084,35.5748172 8.45816944e-16,33.09493 -1.39194236e-15,26.7399819 L1.33170461e-15,18.952937 C-8.09213338e-16,12.5979889 0.696192084,10.1181017 2.00349528,7.67365722 C3.31079847,5.22921278 5.22921278,3.31079847 7.67365722,2.00349528 C10.1181017,0.696192084 12.5979889,-7.38095239e-17 18.952937,1.21466712e-16 Z"></path>
                        </g>
                    </g>
                    <ellipse id="Oval-2" fill="#F2F6FB" cx="270.081246" cy="153.224455" rx="5.91242598" ry="5.91751452"></ellipse>
                    <path d="M218.075689,155.281159 C218.075689,155.281159 218.966768,155.281159 220.076626,155.281159 L271.377804,155.281159 C272.482891,155.281159 272.906754,156.033175 272.312741,156.979618 L247.251694,196.909424 C246.662959,197.847457 245.690119,197.863444 245.08115,196.948084 L223.082392,163.578154" id="Rectangle-2" fill="#F2F6FB" transform="translate(244.252405, 175.128263) rotate(180.000000) translate(-244.252405, -175.128263) "></path>
                    <path d="M257.182963,175.961272 C257.182963,175.961272 258.073272,175.931135 259.173561,175.893889 L286.632887,174.964375 C287.732264,174.92716 288.299555,175.730245 287.899226,176.760022 L277.908426,202.459631 C277.508429,203.488554 276.660419,203.595403 276.015309,202.699625 L267.857674,191.372213" id="Rectangle-2" fill="#F2F6FB" transform="translate(272.903224, 189.609827) rotate(304.000000) translate(-272.903224, -189.609827) "></path>
                </g>
            </g>
            <path d="M0,20.0038812 C0,8.95604268 8.95300741,0 20.0082111,0 L481.991789,0 C493.042019,0 502,8.95448212 502,20.0038812 L502,42.529563 L0,42.529563 L0,20.0038812 Z" id="Top-bar-Copy" fill="#E1E5F0" fill-rule="nonzero"></path>
            <ellipse id="Burron-Copy" fill="#FF5645" fill-rule="nonzero" cx="28.5337187" cy="21.748072" rx="9.18882466" ry="9.18251928"></ellipse>
            <ellipse id="Burron-Copy-2" fill="#FFCB3D" fill-rule="nonzero" cx="58.5183044" cy="21.748072" rx="9.18882466" ry="9.18251928"></ellipse>
            <ellipse id="Burron-Copy-3" fill="#3ABF7C" fill-rule="nonzero" cx="89.4701349" cy="21.748072" rx="9.18882466" ry="9.18251928"></ellipse>
        </g>
        <g id="Characters-in-moshion-/-Woman-in-moshion-/-1" transform="translate(368.000000, 123.000000)">
            <g id="Woman" transform="translate(269.000000, 50.804272)">
                <path d="M4.5,904.195728 C2,904.195728 0,902.464959 0,900.388036 L0,899.003421 C0,896.926498 2.1,895.195728 4.5,895.195728 L107,895.195728 C109.5,895.195728 111.5,896.926498 111.5,899.003421 L111.5,900.388036 C111.5,902.464959 109.4,904.195728 107,904.195728 L4.5,904.195728 Z M279.5,895.195728 L449.5,895.195728 C451.985281,895.195728 454,897.210447 454,899.695728 C454,902.18101 451.985281,904.195728 449.5,904.195728 L279.5,904.195728 C277.014719,904.195728 275,902.18101 275,899.695728 C275,897.210447 277.014719,895.195728 279.5,895.195728 Z" id="Base" fill="#FF5645" fill-rule="nonzero"></path>
                <path d="M450.033434,895.227015 C449.858499,895.206354 449.68049,895.195728 449.5,895.195728 L279.5,895.195728 C279.215095,895.195728 278.936374,895.222205 278.666163,895.272832 L286.699219,831.195728 L361.9,831.195728 C369.130901,836.344959 375.097568,840.744959 379.8,844.395728 C381.185215,845.471151 382.549971,846.550845 383.894269,847.634811 C390.534864,852.989411 397.833316,857.472306 405.611834,860.974292 C413.341223,864.454159 421.070611,868.061305 428.8,871.795728 C433.6,874.095728 438.2,876.595728 442.8,879.495728 C445,881.495728 448.9,885.495728 450.1,890.295728 C450.3,891.095728 450.3,891.895728 450.4,892.595728 C450.4,893.533946 450.261104,894.41429 450.033434,895.227015 Z M108.642754,895.458649 C108.134702,895.289157 107.580846,895.195728 107,895.195728 L5.78640225,895.195728 C9.83795434,886.412071 18.8758203,865.096005 32.9,831.247532 L112.197266,831.247532 L108.642754,895.458649 Z" id="Shoes" fill="#474961" fill-rule="nonzero"></path>
                <path d="M218.904125,513.145047 L141.352172,791.508853 C137.73772,804.482514 125.92051,813.4575 112.452766,813.4575 L49.1641247,813.4575 C32.5955822,813.4575 19.1641247,800.026042 19.1641247,783.4575 C19.1641247,780.911484 19.4882292,778.375824 20.1286232,775.911663 L103.53125,454.988068 C115.718125,388.309289 125.964545,345.044809 134.270508,325.19463 C147.380554,293.863312 173.219553,278.22838 184.416391,277.434747 C237.209453,273.692769 264.437635,275.262114 266.100936,282.142783 C280.397274,286.345835 317.022619,345.611495 348.201019,490.650886 C367.467554,580.277248 377.853184,678.734936 379.35791,786.023948 C379.590262,802.590862 366.348482,816.209356 349.781568,816.441707 C349.637087,816.443733 349.492594,816.444716 349.348099,816.444654 L290.466481,816.419608 C274.604834,816.412861 261.489406,804.059943 260.533742,788.22711 L247.102004,565.698596 L218.904125,513.145047 Z" id="Legs" fill="#A339FF" fill-rule="nonzero"></path>
                <path d="M398.934668,125.287352 L403.864887,195.792768 C404.134565,199.649344 401.22681,202.994334 397.370234,203.264012 L371.433569,205.07768 C367.576993,205.347358 364.232003,202.439603 363.962325,198.583027 L357.963269,112.792519 C357.926273,112.263457 357.949075,111.744023 358.025922,111.240836 L357.474297,111.051429 L329.947376,106.470009 C320.330911,104.869501 312.965565,97.046838 311.946544,87.3514975 L311.943874,87.3260966 C310.923084,77.6139296 316.426847,68.3912757 325.459196,64.678477 L353.231616,53.2624645 L413.738431,12.3085173 C414.767778,11.6118056 415.964074,11.2017411 417.204379,11.1204652 C421.062098,10.8676728 424.394327,13.7900436 424.647119,17.6477631 L431.767222,126.303549 C431.827868,127.22903 431.703994,128.157336 431.402798,129.034532 C430.14731,132.690986 426.165395,134.637353 422.508941,133.381865 L398.934668,125.287352 Z" id="Object" fill="#474961" fill-rule="nonzero"></path>
                <rect id="Shadow-Object" fill="#444444" fill-rule="nonzero" opacity="0.176985679" transform="translate(381.311398, 154.446872) rotate(-4.000000) translate(-381.311398, -154.446872) " x="361.311398" y="104.446872" width="40" height="100" rx="7"></rect>
                <rect id="Object" fill="#474BFF" fill-rule="nonzero" transform="translate(424.829774, 71.429214) rotate(-4.000000) translate(-424.829774, -71.429214) " x="416.829774" y="5.92921405" width="16" height="131" rx="8"></rect>
                <path d="M252.779944,120.73158 C268.891112,127.844034 280.540372,141.349376 284.880036,156.620988 C286.377755,161.820988 286.658577,167.420988 286.096932,172.820988 L279.918842,243.120988 C279.825235,244.220988 279.731627,245.220988 279.731627,246.320988 C279.63802,251.520988 278.608338,257.920988 274.583219,263.220988 C268.779559,271.020988 259.793246,282.020988 222.350276,281.620988 C187.528314,281.220988 179.197253,270.220988 173.580807,262.620988 C169.555688,257.220988 168.713221,249.820988 168.619614,244.820988 C168.619614,243.720988 168.526006,242.720988 168.432399,241.620988 L165.761525,207.284337 C163.217383,209.373039 160.849931,210.98091 158.697253,211.934658 C150.47353,215.578196 144.943049,208.337765 142.10581,190.213366 C133.0667,178.560498 106.345024,161.575899 149.960472,128.396577 C166.307698,115.960848 181.500028,115.585712 193.091919,120.810159 C200.57209,117.707031 209.09328,115.854811 218.288422,115.487094 L218.474472,112.826448 C218.667099,110.071751 221.056378,107.994783 223.811075,108.18741 L248.750176,109.931322 C251.504873,110.123949 253.581841,112.513227 253.389214,115.267924 L253.110188,119.258181 C253.073917,119.776886 252.95976,120.271562 252.779944,120.73158 Z" id="T-shirt" fill="#FF5645" fill-rule="nonzero"></path>
                <path d="M32.9,831.247532 L39.550293,811.946705 L113.746094,813.4575 L112.197266,831.247532 L32.9,831.247532 Z M341.127667,458.988391 C311.559072,336.293153 279.11898,285.520756 266.038056,282.091356 C266.027528,282.027171 266.014842,281.963435 266,281.900147 C275.326188,275.273622 286.416071,265.900052 299.269649,253.779437 C330.601016,305.352659 347.375242,355.773618 349.592329,405.042314 C350.872329,433.486842 348.050775,451.468868 341.127667,458.988391 Z M350.267709,139.710239 C350.836608,139.434887 351.452589,139.232593 352.105811,139.117413 L396.42216,131.303245 C400.22942,130.631922 403.860028,133.174101 404.531351,136.981362 L405.052296,139.935785 C405.362084,141.692681 404.987573,143.411961 404.120226,144.820186 C405.34686,145.841784 406.232444,147.286173 406.531351,148.981362 L407.052296,151.935785 C407.500685,154.478727 406.515479,156.942863 404.677248,158.499051 C407.115657,159.24371 409.058277,161.298424 409.531351,163.981362 L410.052296,166.935785 C410.723618,170.743045 408.181439,174.373654 404.374179,175.044976 L368.326774,181.401106 C311.456937,245.163918 271.991107,281.819101 249.929284,291.366657 C229.936634,300.01875 199.626872,273.309705 159,211.23952 C171.362274,205.063466 190.365518,178.865881 209.259765,163.361677 C209.497146,163.166887 209.726235,162.966507 209.947119,162.760765 L248.72519,212.464313 C316.383168,163.876485 350.212156,139.582571 350.212156,139.582571 L350.267709,139.710239 Z M251.849112,100.117998 L251.235596,111.13274 C233.654148,110.598925 223.883779,109.776503 221.924489,108.665476 L222.512846,90.369753 L221.924794,83.3937803 L222.431966,77.7446408 L230.554797,78.5957803 L230.962289,77.6595022 C230.855557,77.5667215 230.848581,77.4669651 230.848581,77.4669651 C230.479556,76.490328 229.525943,75.7550575 228.727892,75.8108627 C226.897398,75.4376423 224.134219,74.6284208 221.679382,72.4944634 C218.25698,69.4257227 215.991899,64.2711705 217.225268,58.9722271 C218.372832,53.8797722 218.7499,45.8321703 223.545183,45.5970956 C226.245582,45.5085096 230.535361,45.4185098 230.848581,45.5970956 C231.161802,45.7756815 237.757672,50.1183915 237.4905,47.7312135 C237.312385,46.1397614 236.384608,37.650467 234.70717,22.2633303 C234.59556,20.6672278 235.694977,19.1869303 237.284104,18.9755636 C240.170064,18.6735134 242.935341,18.0791697 245.779447,17.178581 C248.843993,16.5633104 251.017707,16.1105769 251.709026,15.961991 C256.548261,14.9218894 265.347751,14.6073017 273.351972,17.2554061 C276.755543,18.6213122 280.108188,20.6924888 283.024832,23.6963513 C283.778932,24.445573 284.546983,25.3943075 285.315034,26.3430421 C285.535474,26.62836 285.755914,26.9136779 285.983329,27.2987522 C288.215629,30.5509571 289.585,34.3647247 289.864026,38.3549809 L291.411936,56.1904505 C291.437741,57.9930414 291.563303,59.7886567 291.389595,61.6051989 C289.952473,84.0601467 282.183281,100.542248 273.980231,102.218547 C272.996618,102.487816 267.644651,103.363283 261.162582,102.413135 C260.550092,102.255476 261.062825,102.420111 252.288456,100.226837 C252.140728,100.190387 251.994283,100.154107 251.849112,100.117998 Z M286.331543,836.933033 L288.50708,816.444657 L355.73291,815.665943 L362.250488,832.060475 L286.331543,836.933033 Z" id="Skin" fill="#F2A98A" fill-rule="nonzero"></path>
                <path d="M218.63026,512.496997 L265.808992,282.680885 C265.816869,282.461989 265.801638,282.247893 265.763297,282.038599 C279.755507,285.197368 316.793154,344.195366 348.276709,490.654318 C367.590393,580.500012 377.959081,678.997739 379.382774,786.147499 C379.596499,802.234913 366.728353,815.44962 350.640939,815.663372 C350.511935,815.665086 350.382922,815.665943 350.253906,815.665943 C341.384437,815.665943 321.577143,815.817269 290.832025,816.119919 C274.852193,816.277223 261.554055,803.880447 260.591224,787.928872 L247.177695,565.702028 L218.63026,512.496997 Z" id="Shadow-Skin" fill="#444444" fill-rule="nonzero" opacity="0.176985679"></path>
                <path d="M341.127667,458.988391 C311.559072,336.293153 279.11898,285.520756 266.038056,282.091356 C266.027528,282.027171 266.014842,281.963435 266,281.900147 C275.326188,275.273622 286.416071,265.900052 299.269649,253.779437 C330.601016,305.352659 347.375242,355.773618 349.592329,405.042314 C350.872329,433.486842 348.050775,451.468868 341.127667,458.988391 Z" id="Combined-Shape-Copy" fill="#8C2A00" fill-rule="nonzero" opacity="0.2"></path>
                <polygon id="Shadow" fill="#482D1F" fill-rule="nonzero" transform="translate(246.913654, 103.412561) scale(-1, 1) rotate(4.000000) translate(-246.913654, -103.412561) " points="242.949897 110.187215 252.388332 96.6379077 241.438976 100.5707"></polygon>
                <path d="M240.622571,56.7795449 L239.475141,54.6095271 C239.475141,54.6095271 237.655818,51.5289325 234.003904,49.4786829 C233.690683,49.300097 231.405359,48.156728 228.70496,48.245314 C223.909677,48.4803887 219.407371,52.9052324 218.259808,57.9976873 C216.926682,63.3036064 219.191763,68.4581586 222.607189,71.4271428 C226.02959,74.4958835 230.668874,74.8394738 231.986635,75.0480596 L232.015446,75.0453005 C234.019229,79.1978745 234.209397,83.6388374 232.585949,88.368189 C231.180369,92.4628573 227.269917,96.3285726 222.630459,99.4660133 L213.801671,98.8717361 L222.195927,87.8285687 C219.003696,85.256466 214.120875,81.1141524 211.212618,77.6371151 C208.91544,74.8906679 201.56488,68.6883085 198.674771,57.4625669 C198.366747,56.1254511 197.764008,53.6739801 197.436736,50.5868001 C191.835965,53.6710764 185.079323,54.882224 178.206324,53.5462482 C163.026467,50.5955831 153.027321,36.3373809 155.872605,21.6996624 C158.71789,7.06194388 173.330153,-2.41228482 188.510009,0.538380331 C200.195663,2.80984125 208.811163,11.782288 210.860316,22.4703491 C217.228869,19.3085144 223.459204,20.1356703 236.936005,18.2981957 C238.126107,18.1147315 240.107283,17.7757058 242.686999,17.3948261 C243.777343,17.2183376 244.668175,17.0558004 245.559007,16.8932631 C248.623553,16.2779924 250.797267,15.825259 251.488587,15.676673 C256.327821,14.6365715 265.127312,14.3219837 273.131532,16.9700882 C276.535104,18.3359943 279.887748,20.4071709 282.804392,23.4110334 C283.558492,24.1602551 286.734098,27.6105367 287.502149,28.5592712 C288.449133,31.7979587 285.033186,33.0685801 282.680886,33.8345341 C275.324717,36.1533229 265.002387,31.1717432 260.942374,30.453205 C254.40377,38.7294756 247.957947,46.8990141 241.519099,55.168309 C241.231959,55.6664716 240.932474,56.2053821 240.622571,56.7795449 Z M293.648085,52.1021865 C291.67176,52.6063102 288.596943,53.1680035 285.858775,52.5104069 C281.296905,51.4477003 285.560035,48.7208483 289.654416,48.5062709 C291.651675,48.401599 293.196722,49.2218616 294.137357,49.9736629 C294.967662,50.5309718 294.636247,51.8501246 293.648085,52.1021865 Z M274.40965,53.5966784 C272.473305,54.2374355 269.44516,55.012249 266.457094,54.4723785 C261.844393,53.8297352 265.894736,50.7128901 269.964175,50.2132258 C272.048522,49.9573001 273.647023,50.6677877 274.63781,51.3521422 C275.61641,51.9372421 275.377822,53.2762998 274.40965,53.5966784 Z" id="Hair" fill="#482D1F" fill-rule="nonzero"></path>
                <path d="M286.77894,60.2217365 C286.773972,59.0175873 287.683011,57.9342369 288.878445,57.82965 C289.6754,57.7599254 290.407599,58.0973943 290.81976,59.3663007 C291.995234,62.4756835 289.416281,67.4192658 287.873444,65.8477529 C286.872282,64.7307594 286.727865,61.9326987 286.77894,60.2217365 Z M268.95577,61.8814438 C268.950803,60.6772946 269.859842,59.5939442 271.055275,59.4893573 C271.852231,59.4196327 272.58443,59.7571015 272.99659,61.0260079 C274.172064,64.1353908 271.593112,69.0789731 270.050275,67.5074601 C269.049112,66.3904667 268.904696,63.5924059 268.95577,61.8814438 Z M277.945038,81.1685268 C277.23553,81.005436 275.511692,80.5950924 275.154534,79.5123007 C275.144067,79.3125748 275.028503,79.0182195 275.117899,78.81326 C275.480715,78.093285 276.700005,78.4299336 278.502772,78.4355919 C281.70362,78.3679797 284.284356,77.9323174 284.284356,77.9323174 C284.284356,77.9323174 283.689987,79.9662116 283.222074,80.5915573 C282.307182,82.2417006 279.059232,81.4105461 277.945038,81.1685268 Z M281.832817,61.716724 L281.828258,61.6510445 L281.815126,61.5865297 L281.832817,61.716724 Z M283.972928,72.1881282 C284.221774,73.3134529 283.406594,74.4651918 282.278224,74.7145669 C282.152022,74.7408881 282.037912,74.7632511 281.922929,74.7844441 C281.222239,74.9135916 280.566199,74.9916366 279.34713,75.1035619 C279.159004,75.1208342 278.444751,75.1853007 278.435237,75.1861638 C278.039719,75.2220471 277.716068,75.2520817 277.38037,75.2843439 C276.830618,75.3371778 276.342126,74.9343463 276.289292,74.3845945 C276.236458,73.8348427 276.63929,73.3463505 277.189042,73.2935166 C277.528759,73.2608681 277.855755,73.230523 278.25453,73.1943443 C278.265433,73.1933551 278.977963,73.1290442 279.164275,73.1119385 C280.326943,73.0051914 280.934864,72.9328709 281.560405,72.8175743 C281.660554,72.7991155 281.759788,72.7796679 281.858851,72.7590697 C281.936145,72.7419072 282.020773,72.6223391 282.016582,72.603372 L279.855309,61.9854222 L279.837618,61.8552279 L279.428973,55.9685473 C279.390727,55.4175884 279.806362,54.9399429 280.357321,54.9016961 C280.908279,54.8634493 281.385925,55.2790846 281.424172,55.8300434 L281.828258,61.6510445 L283.972928,72.1881282 Z" id="Face" fill="#482D1F" fill-rule="nonzero"></path>
                <path d="" id="Path-26" stroke="#979797"></path>
                <path d="M206.467598,164.388555 C209.023393,152.292494 209.023393,140.071301 206.468823,127.738078 C206.300798,126.92687 205.506972,126.405467 204.695764,126.573491 C203.884556,126.741516 203.363152,127.535342 203.531177,128.34655 C206.0022,140.276414 206.0022,152.07932 203.532402,163.768373 C203.361144,164.578905 203.879377,165.374803 204.689909,165.546062 C205.500441,165.71732 206.296339,165.199087 206.467598,164.388555 Z" id="Shadow" fill="#482D1F" fill-rule="nonzero" transform="translate(205.942146, 146.060392) rotate(-15.000000) translate(-205.942146, -146.060392) "></path>
            </g>
        </g>
        <g id="UI-/-Charts-/-Chart-3-/-3" transform="translate(1122.000000, 259.000000)">
            <g id="Chart">
                <g id="Browser" fill="#F2F6FB" fill-rule="nonzero">
                    <g id="Background">
                        <rect x="0" y="0" width="327" height="251" rx="6"></rect>
                    </g>
                </g>
                <g id="Graphic" transform="translate(43.213018, 76.138817)" fill-rule="nonzero">
                    <path d="M217.920018,58.7172237 L228.399509,58.7172237 C232.857103,58.7172237 234.473534,59.1813517 236.103163,60.0528872 C237.732793,60.9244226 239.011736,62.2033655 239.883271,63.8329951 C240.754807,65.4626248 241.218935,67.079056 241.218935,71.5366496 L241.218935,174.861183 L205.100592,174.861183 L205.100592,71.5366496 C205.100592,67.079056 205.56472,65.4626248 206.436255,63.8329951 C207.307791,62.2033655 208.586734,60.9244226 210.216363,60.0528872 C211.845993,59.1813517 213.462424,58.7172237 217.920018,58.7172237 Z" id="Rectangle" fill="#D8DEED"></path>
                    <path d="M176.641911,86.4627249 L187.766373,86.4627249 C192.223967,86.4627249 193.840398,86.926853 195.470027,87.7983885 C197.099657,88.6699239 198.3786,89.9488668 199.250135,91.5784964 C200.121671,93.208126 200.585799,94.8245572 200.585799,99.2821509 L200.585799,174.861183 L163.822485,174.861183 L163.822485,99.2821509 C163.822485,94.8245572 164.286613,93.208126 165.158149,91.5784964 C166.029684,89.9488668 167.308627,88.6699239 168.938257,87.7983885 C170.567886,86.926853 172.184318,86.4627249 176.641911,86.4627249 Z" id="Rectangle" fill="#D8DEED"></path>
                    <path d="M136.008775,-5.17920154e-16 L146.488266,5.17920154e-16 C150.94586,-3.00926524e-16 152.562291,0.464128056 154.191921,1.33566352 C155.82155,2.20719898 157.100493,3.48614185 157.972029,5.11577148 C158.843564,6.74540111 159.307692,8.3618323 159.307692,12.819426 L159.307692,174.861183 L123.189349,174.861183 L123.189349,12.819426 C123.189349,8.3618323 123.653477,6.74540111 124.525013,5.11577148 C125.396548,3.48614185 126.675491,2.20719898 128.305121,1.33566352 C129.93475,0.464128056 131.551181,3.00926524e-16 136.008775,-5.17920154e-16 Z" id="Rectangle" fill="#E1E5F0"></path>
                    <path d="M94.7306686,22.5835476 L105.21016,22.5835476 C109.667753,22.5835476 111.284185,23.0476756 112.913814,23.9192111 C114.543444,24.7907465 115.822387,26.0696894 116.693922,27.699319 C117.565458,29.3289487 118.029586,30.9453799 118.029586,35.4029736 L118.029586,174.861183 L81.9112426,174.861183 L81.9112426,35.4029736 C81.9112426,30.9453799 82.3753707,29.3289487 83.2469061,27.699319 C84.1184416,26.0696894 85.3973845,24.7907465 87.0270141,23.9192111 C88.6566437,23.0476756 90.2730749,22.5835476 94.7306686,22.5835476 Z" id="Rectangle" fill="#D8DEED"></path>
                    <path d="M54.0975325,75.4935733 L64.5770237,75.4935733 C69.0346174,75.4935733 70.6510486,75.9577013 72.2806782,76.8292368 C73.9103079,77.7007722 75.1892507,78.9797151 76.0607862,80.6093447 C76.9323216,82.2389744 77.3964497,83.8554056 77.3964497,88.3129993 L77.3964497,174.861183 L41.2781065,174.861183 L41.2781065,88.3129993 C41.2781065,83.8554056 41.7422346,82.2389744 42.61377,80.6093447 C43.4853055,78.9797151 44.7642484,77.7007722 46.393878,76.8292368 C48.0235076,75.9577013 49.6399388,75.4935733 54.0975325,75.4935733 Z" id="Rectangle" fill="#D8DEED"></path>
                    <path d="M12.819426,49.0385604 L23.2989172,49.0385604 C27.7565109,49.0385604 29.3729421,49.5026885 31.0025717,50.3742239 C32.6322013,51.2457594 33.9111442,52.5247023 34.7826797,54.1543319 C35.6542151,55.7839615 36.1183432,57.4003927 36.1183432,61.8579864 L36.1183432,174.861183 L0,174.861183 L3.45280103e-16,61.8579864 C-2.00617683e-16,57.4003927 0.464128056,55.7839615 1.33566352,54.1543319 C2.20719898,52.5247023 3.48614185,51.2457594 5.11577148,50.3742239 C6.74540111,49.5026885 8.3618323,49.0385604 12.819426,49.0385604 Z" id="Rectangle" fill="#D8DEED"></path>
                </g>
            </g>
        </g>
    </g>
</svg>