<?xml version="1.0" encoding="UTF-8"?>
<svg width="1700px" height="1200px" viewBox="0 0 1700 1200" version="1.1" xmlns="http://www.w3.org/2000/svg" xmlns:xlink="http://www.w3.org/1999/xlink">
    <!-- Generator: Sketch 56.1 (81669) - https://sketch.com -->
    <title>Headhunter</title>
    <desc>Created with Sketch.</desc>
    <g id="Headhunter" stroke="none" stroke-width="1" fill="none" fill-rule="evenodd">
        <g id="UI-/-Users-/-User-1-/-2" transform="translate(1069.000000, 116.000000)">
            <g id="Users" stroke-width="1" fill-rule="evenodd" transform="translate(0.000000, 24.349614)">
                <g id="Browser" fill="#F2F6FB" fill-rule="nonzero">
                    <g id="Background">
                        <rect x="0" y="0" width="386" height="271.650386" rx="20"></rect>
                    </g>
                </g>
                <g id="Userpic" transform="translate(64.174144, 41.330443)" fill-rule="nonzero">
                    <g>
                        <g id="Group-2" transform="translate(0.000000, 0.520456)" fill="#D8DEED">
                            <ellipse id="Oval" cx="33.2775327" cy="32.7197943" rx="32.7376726" ry="32.7197943"></ellipse>
                            <ellipse id="Oval" cx="129.206527" cy="32.7197943" rx="32.7376726" ry="32.7197943"></ellipse>
                            <ellipse id="Oval-Copy" cx="225.135521" cy="32.7197943" rx="32.7376726" ry="32.7197943"></ellipse>
                            <ellipse id="Oval" cx="33.2775327" cy="143.434447" rx="32.7376726" ry="33.1002571"></ellipse>
                            <ellipse id="Oval" cx="129.206527" cy="143.434447" rx="32.7376726" ry="33.1002571"></ellipse>
                            <ellipse id="Oval" cx="224.75485" cy="143.434447" rx="33.1183432" ry="33.1002571"></ellipse>
                        </g>
                        <g id="Icons-/-User" transform="translate(17.586982, 16.815506)" fill="#F2F6FB">
                            <path d="M15.6905505,16.4247443 C11.0653019,16.4247443 7.31579702,12.8476261 7.31579702,8.43502707 C7.31579702,4.0224281 11.0653019,0.445309851 15.6905505,0.445309851 C20.315797,0.445309851 24.0653039,4.0224281 24.0653039,8.43502707 C24.0653039,12.8476261 20.315797,16.4247443 15.6905505,16.4247443 Z M15.6905505,20.2293715 C24.1000981,20.2293715 30.9173749,26.7022477 30.9173749,34.6869551 L0.463726018,34.6869551 C0.463726018,26.7022477 7.28100285,20.2293715 15.6905505,20.2293715 Z" id="Combined-Shape"></path>
                        </g>
                    </g>
                </g>
                <g id="Userpic" transform="translate(178.015420, 58.070803)" fill="#F2F6FB" fill-rule="nonzero">
                    <g id="Icons-/-User">
                        <g transform="translate(0.076134, 0.075147)">
                            <path d="M15.289116,16.4247443 C10.6638674,16.4247443 6.91436256,12.8476261 6.91436256,8.43502707 C6.91436256,4.0224281 10.6638674,0.445309851 15.289116,0.445309851 C19.9143626,0.445309851 23.6638695,4.0224281 23.6638695,8.43502707 C23.6638695,12.8476261 19.9143626,16.4247443 15.289116,16.4247443 Z M14.9084454,20.2293715 C23.1077543,20.2293715 29.7545992,26.7022477 29.7545992,34.6869551 L0.0622915546,34.6869551 C0.0622915546,26.7022477 6.70913647,20.2293715 14.9084454,20.2293715 Z" id="Combined-Shape"></path>
                            <path d="M111.21811,16.4247443 C106.592861,16.4247443 102.843357,12.8476261 102.843357,8.43502707 C102.843357,4.0224281 106.592861,0.445309851 111.21811,0.445309851 C115.843357,0.445309851 119.592864,4.0224281 119.592864,8.43502707 C119.592864,12.8476261 115.843357,16.4247443 111.21811,16.4247443 Z M110.837439,20.2293715 C119.036748,20.2293715 125.683593,26.7022477 125.683593,34.6869551 L95.9912856,34.6869551 C95.9912856,26.7022477 102.638131,20.2293715 110.837439,20.2293715 Z" id="Combined-Shape-Copy"></path>
                        </g>
                    </g>
                </g>
                <g id="Userpic" transform="translate(81.684992, 167.386625)" fill="#F2F6FB" fill-rule="nonzero">
                    <g id="Icons-/-User">
                        <g transform="translate(0.076134, 0.075147)">
                            <path d="M15.6905505,17.4431132 C11.0653019,17.4431132 7.31579702,13.695656 7.31579702,9.07293322 C7.31579702,4.45021048 11.0653019,0.702753275 15.6905505,0.702753275 C20.315797,0.702753275 24.0653039,4.45021048 24.0653039,9.07293322 C24.0653039,13.695656 20.315797,17.4431132 15.6905505,17.4431132 Z M15.6905505,20.486815 C24.1000981,20.486815 30.9173749,27.3003689 30.9173749,35.705324 L0.463726018,35.705324 C0.463726018,27.3003689 7.28100285,20.486815 15.6905505,20.486815 Z" id="Combined-Shape"></path>
                        </g>
                    </g>
                </g>
                <g id="Userpic" transform="translate(178.015420, 167.386625)" fill="#F2F6FB" fill-rule="nonzero">
                    <g id="Icons-/-User">
                        <g transform="translate(0.076134, 0.075147)">
                            <path d="M15.289116,17.4431132 C10.6638674,17.4431132 6.91436256,13.695656 6.91436256,9.07293322 C6.91436256,4.45021048 10.6638674,0.702753275 15.289116,0.702753275 C19.9143626,0.702753275 23.6638695,4.45021048 23.6638695,9.07293322 C23.6638695,13.695656 19.9143626,17.4431132 15.289116,17.4431132 Z M14.9084454,20.486815 C23.1077543,20.486815 29.7545992,27.3003689 29.7545992,35.705324 L0.0622915546,35.705324 C0.0622915546,27.3003689 6.70913647,20.486815 14.9084454,20.486815 Z" id="Combined-Shape"></path>
                        </g>
                    </g>
                </g>
                <g id="Userpic" transform="translate(273.584508, 167.386625)" fill="#F2F6FB" fill-rule="nonzero">
                    <g id="Icons-/-User">
                        <g transform="translate(0.076134, 0.075147)">
                            <path d="M15.6490228,17.4431132 C11.0237742,17.4431132 7.27426932,13.695656 7.27426932,9.07293322 C7.27426932,4.45021048 11.0237742,0.702753275 15.6490228,0.702753275 C20.2742693,0.702753275 24.0237762,4.45021048 24.0237762,9.07293322 C24.0237762,13.695656 20.2742693,17.4431132 15.6490228,17.4431132 Z M15.2683522,20.486815 C23.4676611,20.486815 30.114506,27.3003689 30.114506,35.705324 L0.422198315,35.705324 C0.422198315,27.3003689 7.06904323,20.486815 15.2683522,20.486815 Z" id="Combined-Shape"></path>
                        </g>
                    </g>
                </g>
                <g id="Text" transform="translate(64.174144, 115.478372)" fill="#E1E5F0" fill-rule="nonzero">
                    <rect x="0.53986014" y="0.182296852" width="65.4753452" height="13.6966581" rx="6.84832905"></rect>
                </g>
                <g id="Text" transform="translate(160.504572, 115.478372)" fill="#E1E5F0" fill-rule="nonzero">
                    <rect x="0.138425677" y="0.182296852" width="65.4753452" height="13.6966581" rx="6.84832905"></rect>
                </g>
                <g id="Text" transform="translate(255.312318, 115.478372)" fill="#E1E5F0" fill-rule="nonzero">
                    <rect x="0.498332437" y="0.182296852" width="66.2366864" height="13.6966581" rx="6.84832905"></rect>
                </g>
                <g id="Text" transform="translate(64.174144, 225.555118)" fill="#E1E5F0" fill-rule="nonzero">
                    <rect x="0.53986014" y="0.439740276" width="65.4753452" height="13.6966581" rx="6.84832905"></rect>
                </g>
                <g id="Text" transform="translate(160.504572, 225.555118)" fill="#E1E5F0" fill-rule="nonzero">
                    <rect x="0.138425677" y="0.439740276" width="65.4753452" height="13.6966581" rx="6.84832905"></rect>
                </g>
                <g id="Text" transform="translate(255.312318, 225.555118)" fill="#E1E5F0" fill-rule="nonzero">
                    <rect x="0.498332437" y="0.439740276" width="66.2366864" height="13.6966581" rx="6.84832905"></rect>
                </g>
            </g>
            <path d="M0,16.7403599 C0,7.49491442 7.4944381,0 16.7408705,0 L369.259129,0 C378.504857,0 386,7.4928816 386,16.7403599 L386,33.4807198 L0,33.4807198 L0,16.7403599 Z" id="Top-bar-Copy" fill="#E1E5F0" fill-rule="nonzero"></path>
        </g>
        <g id="Group" transform="translate(556.000000, 324.000000)">
            <g id="Interior-/-Chair-/--Chair-2" transform="translate(507.000000, 496.000000) scale(-1, 1) translate(-507.000000, -496.000000) translate(342.000000, 236.000000)" fill="#D8DEED">
                <g id="Chair-" transform="translate(0.000000, 4.000000)">
                    <path d="M115.401504,298.8 L36.3,298.8 C33.9,298.8 31.8,296.8 31.8,294.4 L31.8,293.9 C31.8,291.5 33.9,289.5 36.5,289.5 L109.8,289.5 C154.2,289.5 198.6,289.5 242.9,289.5 L310.9,289.5 C313.3,289.5 315.4,291.5 315.4,293.9 L315.4,294.4 C315.4,296.8 313.4,298.8 310.9,298.8 L214.398496,298.8 L241,347.6 C259.9,382.4 278.8,417.1 297.8,451.9 L329.1,509.3 C330.2,511.3 329.3,513.9 327.2,515.1 L326.8,515.3 C324.7,516.4 322,515.8 321,513.9 L203.9,298.8 L125.9,298.8 L8.8,513.9 C7.8,515.8 5.1,516.5 3,515.3 L2.6,515.1 C0.5,513.9 -0.4,511.3 0.7,509.3 L32,451.9 C50.9,417.1 69.8,382.4 88.8,347.6 L115.401504,298.8 Z M32.1,259.61237 L32.1,201.468894 C32.1,157.124425 32.1,112.881663 32.1,68.6389013 L32.1,15.8 C32.1,7.51572875 38.8157288,0.8 47.1,0.8 L210.3,0.8 C218.584271,0.8 225.3,7.51572875 225.3,15.8 L225.3,259.784199 C225.3,268.06847 218.584271,274.784199 210.3,274.784199 C210.294736,274.784199 210.289471,274.784196 210.284207,274.78419 L47.0842069,274.612361 C38.8061072,274.603646 32.1,267.890474 32.1,259.61237 Z" id="Combined-Shape" fill-rule="nonzero"></path>
                </g>
            </g>
            <g id="Characters-sitting-/-Man-sitting-/-5" transform="translate(95.000000, 0.000000)">
                <g id="Man" transform="translate(0.200000, 85.814293)">
                    <g id="Legs" transform="translate(0.000000, 304.185707)">
                        <path d="M338.608592,365.208809 C337.851314,365.776538 336.917031,366.10753 335.9,366.10753 L280.4,366.10753 C277.9,366.10753 275.8,364.00753 275.8,361.50753 C275.8,359.00753 277.9,356.90753 280.4,356.90753 L334.473797,356.90753 L433.8,282.90753 C435.8,281.40753 438.7,281.80753 440.2,283.80753 C441.7,285.80753 441.3,288.70753 439.3,290.20753 L338.9,365.00753 C338.80482,365.078916 338.707601,365.145998 338.608592,365.208809 Z M5.3,366 C2.9,366 0.8,364 0.8,361.5 C0.8,359 2.8,357 5.3,357 L164.2,357 C166.7,357 168.7,359 168.7,361.5 C168.7,364 166.7,366 164.2,366 L5.3,366 Z" id="Base" fill="#FFCB3D" fill-rule="nonzero"></path>
                        <path d="M434.295511,282.584189 C434.125377,282.67994 433.959815,282.787669 433.8,282.90753 L334.473797,356.90753 L280.4,356.90753 C280.234222,356.90753 280.070202,356.916765 279.908438,356.934737 C279.852784,356.614063 279.814235,356.298926 279.8,356 C279.9,355.3 279.9,354.5 280.1,353.7 C280.6,351.9 281.4,350.2 282.3,348.7 C285.2,344.1 290.4,340.9 290.4,340.9 C296.4,337 301.9,334.4 308.4,331.6 C311.8,330.1 316.6,328.1 322.2,325.9 C324,320.1 325.8,314.3 327.6,308.4 C331,297.1 334.4,285.9 337.7,274.7 L397.9,231 L434.295511,282.584189 Z M166.137525,357.431797 C165.551865,357.154687 164.895268,357 164.2,357 L5.3,357 C4.8376797,357 4.39245861,357.068397 3.9738231,357.195704 C3.80932076,356.841388 3.68274881,356.463366 3.6,356.066172 C3.6,356.066172 3.6,355.966172 3.6,355.966172 C3.6,355.466172 3.5,354.966172 3.6,354.466172 C3.7,353.866172 3.7,353.366172 3.9,352.766172 C5.2,348.266172 8.7,344.466172 11,342.366172 C11.3,342.066172 11.5,341.966172 11.8,341.766172 C16.2,339.066172 20.7,336.566172 25.4,334.466172 C34.6,330.266172 55,321.666172 61.1,318.566172 C69,314.566172 79.9,307.766172 91.3,295.566172 C91.9,295.266172 106.611276,278 106.611276,278 C146.537092,291.933333 166.5,298.933333 166.5,299 L166.5,355.566172 C166.5,356.228706 166.371226,356.857647 166.137525,357.431797 Z" id="Shoes" fill="#474961" fill-rule="nonzero"></path>
                        <g id="Group-Copy" transform="translate(2.800000, 278.000000)"></g>
                        <path d="M238.062102,197.944647 C224.146037,224.190502 207.896532,256.500153 189.313588,294.873601 C185.967839,301.782512 177.945898,305.050505 170.724708,302.446375 L96.2536583,275.590357 C95.8158528,275.432474 95.3856325,275.254301 94.9643936,275.056416 C87.4662644,271.534029 84.2432885,262.600135 87.7656754,255.102006 L159.667025,102.045111 C158.212162,100.068952 156.783313,98.1070915 155.382701,96.1613016 C155.295037,95.9815638 155.161427,95.9354824 155.073763,95.7557446 C139.418278,73.910923 143.720404,44.2233273 164.764363,30.1770972 C171.733775,25.5541686 178.703187,20.93124 185.672599,16.3083113 C194.644125,10.3888891 205.165393,8.27295764 215.398616,9.66244701 C220.514527,6.46398364 226.421798,3.83243128 233.135894,2.39518349 C239.930532,0.967079725 246.289683,1.03719655 252.132916,1.95845754 L485.74822,0.765164132 C493.34791,84.2012807 479.835947,128.403024 445.212331,133.370393 C420.654031,136.893715 384.550436,137.851925 336.901547,136.245023 C358.596328,163.108898 380.261904,190.568082 401.364581,218.150613 C402.865438,220.088529 406.128031,224.7271 406.116902,230.62863 C406.059268,241.44772 394.661705,246.561694 369.483736,263.069204 C339.898195,282.616408 328.760951,293.277024 317.327017,288.062747 C313.544222,286.459076 311.289765,283.88749 310.362952,282.670819 C297.925893,265.870689 269.399281,234.09506 238.062102,197.944647 Z" fill="#A339FF" fill-rule="nonzero"></path>
                        <path d="M238.259215,198.677966 C247.277268,181.656222 255.319545,167.170177 262.386048,155.219831 C267.007369,147.404594 271.384675,140.036759 275.369733,133.367004 C297.563443,134.788482 317.993665,135.818151 336.660399,136.456012 C358.421487,163.398133 380.154829,190.940645 401.321834,218.607258 C402.822692,220.545174 406.085285,225.183745 406.074156,231.085275 C406.016522,241.904365 394.618959,247.018339 369.44099,263.525849 C339.855449,283.073053 328.718205,293.733669 317.28427,288.519392 C313.501476,286.915721 311.247019,284.344135 310.320205,283.127464 C297.914885,266.370207 269.502028,234.713789 238.259216,198.677972 Z M159.868436,102.8332 C158.329205,100.744924 156.81884,98.6724765 155.339955,96.6179466 C155.252291,96.4382088 155.118681,96.3921275 155.031017,96.2123896 C139.375532,74.367568 143.677657,44.6799723 164.721617,30.6337423 C171.691028,26.0108136 178.66044,21.387885 185.629852,16.7649564 C194.637904,10.8214349 205.208341,8.71243691 215.48084,10.136237 C200.517863,19.6450983 192.42621,33.9436568 190.809922,36.9678477 L159.868436,102.8332 Z" id="Shadow-legs" fill="#444444" fill-rule="nonzero" opacity="0.176985679"></path>
                    </g>
                    <g id="Body" transform="translate(247.861575, 0.000000)" fill-rule="nonzero">
                        <path d="M58.4754498,244.348132 C49.4655283,243.391606 36.6071581,242.093892 19.9003391,240.454989 C15.9060674,239.960803 12.1139406,235.784489 12.3731228,231.439147 C11.5601767,220.884343 18.5896695,200.006436 20.1199219,195.585707 C23.6199219,185.685707 29.9199219,166.585707 32.2199219,157.785707 C38.6199219,132.885707 46.5199219,123.585707 49.2199219,120.885707 C52.3199219,117.685707 55.3199219,115.485707 57.3199219,114.085707 C70.8199219,104.785707 85.1199219,103.385707 92.4199219,103.185707 C92.6199219,103.085707 92.8199219,103.085707 93.0199219,103.085707 L109.37038,102.855419 C117.877694,100.874616 126.235303,100.237201 133.053781,99.7242879 C143.032616,99.0290566 153.334627,98.2957019 163.496839,99.5938325 L191.319922,99.9857069 C191.519922,99.9857069 191.719922,99.9857069 191.919922,100.085707 C199.219922,100.285707 213.519922,101.685707 227.019922,110.985707 C229.019922,112.385707 232.019922,114.585707 235.119922,117.785707 C237.819922,120.485707 245.719922,129.785707 252.119922,154.685707 C254.419922,163.485707 260.719922,182.585707 264.219922,192.485707 C265.305318,195.621297 267.626305,205.74314 271.182882,222.851236 C271.48092,223.3101 271.689957,223.810234 271.791902,224.34284 C271.864529,224.79683 271.854032,225.245711 271.769331,225.681325 C271.959857,226.603613 272.153676,227.544527 272.35079,228.504066 C271.532307,228.519287 270.716819,228.536107 269.904326,228.554524 C268.770021,229.465152 267.212882,230.103649 265.439381,230.281226 L238.312079,233.155702 C242.689992,260.228806 243.204471,282.935298 240.75256,297.131491 C240.75256,297.445833 240.64153,297.864957 240.5305,298.1793 C239.975352,301.427507 67.3242175,305.3044 66.1028911,304.151811 C54.9999243,294.197626 57.442577,270.412363 57.442577,270.412363 C57.7903837,261.094807 58.1347892,252.420281 58.4754498,244.348132 Z" id="Shirt" fill="#FFCB3D"></path>
                        <path d="M124.82026,125.124911 L141.290469,115.286782 L152.502139,127.095153 L152.48961,127.199287 C152.205616,129.559751 150.587298,131.434378 148.48044,132.159045 L146.966235,234.989581 C146.962059,235.273183 146.837647,235.541672 146.623975,235.728198 L130.948661,249.412017 C130.53703,249.771351 129.913185,249.733755 129.547687,249.327587 L115.345809,233.545418 C115.150233,233.328078 115.05957,233.036032 115.097686,232.746146 L128.594567,130.095372 C126.515436,129.279859 125.047977,127.355062 124.82026,125.124911 Z" id="Tie" fill="#DE3190"></path>
                        <path d="M141.610095,98.2407879 C136.009021,99.750565 115.043096,101.823516 115.043096,108.715118 C115.043096,113.309519 115.949315,121.194299 117.761753,132.36946 L141.327517,115.341333 L161.287755,132.991239 C170.48938,114.971371 171.265089,104.15578 163.614881,100.544465 C152.13957,95.127494 147.211169,96.7310109 141.610095,98.2407879 Z" id="Shadow-Shirt" fill="#8C2A00" opacity="0.2" transform="translate(141.933706, 114.889790) rotate(5.000000) translate(-141.933706, -114.889790) "></path>
                        <path d="M162.555681,76.7526441 L157.648186,107.566514 C157.514619,108.253653 157.086565,108.883549 156.440346,109.063552 C153.582821,110.138052 149.607344,111.198988 144.90105,111.302894 C136.391007,111.584271 129.688587,108.855249 125.991049,106.91406 C125.243909,106.565087 124.80758,105.6653 124.960227,104.879998 L127.925286,87.5996687 C122.378745,88.5181348 122.705411,88.3816587 122.167501,88.4518548 C115.677955,88.8203616 110.41533,87.5936676 109.471865,87.2065331 C105.995249,86.2251326 102.837493,82.5551769 100.473087,76.9001276 C97.2551027,69.3473414 95.2530066,58.1597764 95.516701,45.2733314 C95.4675064,43.4300788 95.7127998,41.644069 95.9580933,39.8580592 L98.9809234,22.210609 C99.6459967,18.2650194 101.371779,14.6274823 103.942864,11.3579989 C105.03346,9.94004256 106.066813,8.81657442 107.258331,7.92759352 C114.659893,1.47836403 123.769406,0.51248042 130.841196,1.08697862 C134.616892,1.33134757 137.969423,2.00634967 140.332556,2.73651354 C141.196939,3.00640436 144.261823,4.00964402 148.720065,5.18185355 C151.135971,5.85520147 153.099226,6.23681947 154.258097,6.56395298 C168.769857,9.99598332 174.904914,9.35482746 181.503881,14.7124037 C182.744593,15.6666753 185.542344,18.044193 187.623069,22.0141533 C193.488914,33.2396535 189.181467,45.4419444 187.96558,49.0767232 C184.023428,59.9238169 176.209026,65.5358678 173.692425,68.0009686 C170.680279,70.9988555 165.913899,74.4523773 162.555681,76.7526441 Z M17.8207522,281.161374 L23.3565763,240.757975 L48.3369757,243.166055 L58.910331,244.331917 L58.2701673,267.315469 C62.3654043,266.693509 66.0561765,266.478428 69.3424839,266.670224 C93.4659384,260.966073 163.565242,244.691703 203.303316,238.614972 L203.09089,236.615966 L266.137556,229.935386 C267.911057,229.757809 269.468195,229.119312 270.602501,228.208684 C270.953543,228.200726 271.305145,228.193067 271.657305,228.185707 C275.502023,258.119653 272.411004,295.564716 236.575837,306.042853 L75.0584027,306.042853 C75.0719894,306.091187 75.0866771,306.138805 75.1024875,306.185707 L1,306.185707 C0.590936128,296.429831 6.19785353,288.088387 17.8207522,281.161374 Z" id="Skin" fill="#DB9E75"></path>
                        <path d="M17.8013147,281.303239 L23.3565763,240.757975 L58.910331,244.185707 L58.2199219,267.257134 C47.3725483,269.049699 39.5463098,270.780906 34.7412063,272.450755 C29.9361028,274.120605 24.2894723,277.071433 17.8013147,281.303239 Z" id="Shadow-Arm" fill="#8C2A00" opacity="0.2"></path>
                        <path d="M205.482708,236.826796 C205.652619,237.637611 205.133063,238.432647 204.322248,238.602558 C203.511432,238.772469 202.716396,238.252913 202.546486,237.442097 C200.970757,229.92271 194.781712,204.873536 188.965619,181.853136 C188.762694,181.049947 189.249304,180.23433 190.052493,180.031404 C190.855682,179.828479 191.671299,180.315089 191.874225,181.118278 C197.707407,204.20632 203.89414,229.246138 205.482708,236.826796 Z M60.0914597,243.161585 C59.9595148,243.979437 59.1895523,244.535474 58.3717002,244.403529 C57.5538481,244.271585 56.9978104,243.501622 57.1297553,242.68377 C58.3533934,235.099127 61.5522431,209.495752 64.3722267,185.920056 C64.4706168,185.097493 65.2171973,184.510434 66.0397609,184.608824 C66.8623245,184.707214 67.4493831,185.453795 67.350993,186.276358 C64.5227234,209.921328 61.3250685,235.515139 60.0914597,243.161585 Z" id="Shadow" fill="#482D1F"></path>
                        <polygon id="Shadow" fill="#482D1F" transform="translate(134.468535, 90.320776) rotate(11.000000) translate(-134.468535, -90.320776) " points="127.324117 89.0175379 141.612952 82.7267752 127.650343 97.9147766"></polygon>
                        <path d="M106.428444,43.5165482 C106.005906,45.1662335 105.177153,47.8575469 104.004717,48.6483651 C102.049737,49.7964306 100.844202,44.4685149 102.711825,41.6735223 C103.450691,40.4928115 104.175992,40.4300523 104.942212,40.6808622 C106.082003,41.1061585 106.657415,42.3385956 106.428444,43.5165482 Z M124.056814,46.6375411 C123.830601,48.3253882 123.296336,51.0739443 122.085738,52.0610879 C120.288922,53.4436406 118.456249,48.197565 120.048465,45.247167 C120.689167,44.0473752 121.433549,43.8864534 122.218851,44.0391006 C123.396803,44.2680714 124.187622,45.4405075 124.056814,46.6375411 Z" id="Eyes" fill="#482D1F"></path>
                        <path d="M112.330688,64.9572546 C113.030688,64.7572546 114.730688,64.2572546 115.030688,63.1572546 C115.030688,62.9572546 115.130688,62.6572546 115.030688,62.4572546 C114.630688,61.7572546 113.430688,62.1572546 111.630688,62.2572546 C108.430688,62.4572546 105.830688,62.1572546 105.830688,62.1572546 C105.830688,62.1572546 106.530688,64.1572546 107.030688,64.7572546 C108.130688,66.2572546 111.330688,65.2572546 112.330688,64.9572546 Z" id="Mouth" fill="#482D1F" transform="translate(110.452911, 63.807503) rotate(11.000000) translate(-110.452911, -63.807503) "></path>
                        <path d="M108.591976,44.6650652 L108.60166,44.5262358 L108.591976,44.5953128 L108.591976,44.6650652 Z M107.10166,55.2262358 C106.913363,56.3539828 107.787702,57.4614801 108.927577,57.6514591 C109.177112,57.674595 109.177112,57.674595 109.338931,57.687065 C111.026068,57.816775 112.081098,57.8650652 113.891976,57.8650652 C114.444261,57.8650652 114.891976,57.41735 114.891976,56.8650652 C114.891976,56.3127805 114.444261,55.8650652 113.891976,55.8650652 C112.13797,55.8650652 111.132108,55.8190254 109.492242,55.6929497 L109.168672,55.6680107 C109.165946,55.6635999 109.075176,55.5486247 109.07837,55.5294642 L110.582292,44.8038946 L110.591976,44.6650652 L110.591976,38.7650652 C110.591976,38.2127805 110.144261,37.7650652 109.591976,37.7650652 C109.039691,37.7650652 108.591976,38.2127805 108.591976,38.7650652 L108.591976,44.5953128 L107.10166,55.2262358 Z" id="Nose" fill="#482D1F" transform="translate(110.984014, 47.815065) rotate(11.000000) translate(-110.984014, -47.815065) "></path>
                        <path d="M170.395689,47.4595362 C170.853522,50.389665 170.326043,53.5796567 168.995947,56.1448422 C167.379452,59.3775897 165.103933,61.1406048 162.164643,62.4972 C161.663191,62.7286394 161.444302,63.3227654 161.675742,63.8242175 C161.907181,64.3256697 162.501307,64.5445582 163.002759,64.3131187 C164.295191,63.7166118 165.321064,63.1407811 166.508662,62.2206606 C168.258028,60.865296 169.722091,59.1644479 170.778128,57.0523729 C172.296851,54.123643 172.895518,50.5031326 172.371713,47.1507825 C172.286453,46.6051185 171.774988,46.2318873 171.229324,46.3171473 C170.68366,46.4024073 170.310429,46.9138723 170.395689,47.4595362 Z" id="Ear" fill="#482D1F" transform="translate(167.070578, 55.355208) rotate(11.000000) translate(-167.070578, -55.355208) "></path>
                        <path d="M171.894895,47.8973041 C171.889739,46.0820172 171.525088,44.2373601 170.710554,42.4627925 C168.427987,37.4348814 163.015247,33.8359594 157.998142,34.4906797 C155.17602,34.8589599 153.008392,36.5769208 152.773905,36.7350844 C151.838089,37.5356552 151.065064,38.3842624 150.437772,39.1892408 L98.3988525,25.1314061 C99.5456769,13.8366882 105.267859,6.34932281 115.565398,2.66930979 C118.347621,1.67503182 125.846312,0.210767672 132.376179,1.05798166 C142.455595,2.36572997 152.143763,5.13762773 154.865927,5.87348821 C157.085665,6.50870501 160.871053,6.88860136 161.89408,7.18932932 C173.011424,8.25113656 181.435585,13.1811141 184.321862,15.7571637 C185.404088,16.6806288 187.926428,19.0046122 189.690182,22.9129595 C195.222888,34.7868057 190.937763,47.0953072 189.496913,49.8713844 C188.488318,51.8146384 187.092235,52.9694708 187.092235,52.9694708 C182.932904,51.9436144 177.867124,50.2528921 171.894895,47.8973041 Z M100.126496,35.058685 C99.1830307,34.6715506 99.1365943,33.3381926 99.9572996,32.7846198 C100.993411,32.1710462 102.716662,31.6910388 104.679916,32.0726568 C108.704588,32.8549737 112.508563,36.3449267 107.764107,36.6451579 C104.961067,36.9152754 101.896183,35.9120357 100.126496,35.058685 Z M120.21445,39.6764894 C119.270984,39.2893549 119.224548,37.9559969 120.143416,37.4215051 C121.179528,36.8079314 122.902778,36.3279241 124.964195,36.7286229 C128.988867,37.5109398 132.773761,41.0990555 128.048386,41.301124 C125.029939,41.6312424 122.101381,40.4507582 120.21445,39.6764894 Z" id="Hair" fill="#482D1F"></path>
                    </g>
                </g>
            </g>
            <g id="Interior-/-Table-/-Table-4" transform="translate(0.000000, 377.000000)" fill="#D8DEED" fill-rule="nonzero">
                <path d="M14,14 L14,371.5 C14,375.365993 10.8659932,378.5 7,378.5 C3.13400675,378.5 -3.37507799e-14,375.365993 -3.19744231e-14,371.5 L3.37507799e-14,7.5 C3.52985532e-14,4.13148704 2.37932732,1.31869575 5.5490399,0.650568182 C6.44576872,0.233096975 7.445663,1.93678564e-16 8.5,0 L603.5,0 C607.365993,-7.10171439e-16 610.5,3.13400675 610.5,7 C610.5,10.8659932 607.365993,14 603.5,14 L14,14 Z" id="Combined-Shape"></path>
            </g>
            <g id="Documents" transform="translate(69.000000, 262.000000)" fill-rule="nonzero">
                <rect id="Rectangle" fill="#474961" x="9" y="87" width="190" height="29" rx="14.5"></rect>
                <rect id="Rectangle-Copy-2" fill="#474961" x="0" y="29" width="190" height="29" rx="14.5"></rect>
                <rect id="Rectangle-Copy" fill="#DE3190" x="30" y="58" width="190" height="29" rx="14.5"></rect>
                <rect id="Rectangle-Copy-3" fill="#DE3190" x="15" y="0" width="190" height="29" rx="14.5"></rect>
            </g>
        </g>
        <g id="UI-/-Users-/-User-4-/-4" transform="translate(630.000000, 58.000000)">
            <g id="User" transform="translate(217.000000, 194.500000) scale(-1, 1) translate(-217.000000, -194.500000) ">
                <path d="M20,0 L409,0 C422.807119,-2.53632657e-15 434,11.1928813 434,25 L434,364 C434,377.807119 422.807119,389 409,389 L25,389 C11.1928813,389 1.69088438e-15,377.807119 0,364 L0,20 C-1.3527075e-15,8.954305 8.954305,2.02906125e-15 20,0 Z" id="Rectangle" fill="#E1E5F0" fill-rule="nonzero"></path>
                <g id="Userpic" transform="translate(128.000000, 59.000000)">
                    <circle id="Oval" fill="#D8DEED" fill-rule="nonzero" cx="89.5" cy="89.5" r="89.5"></circle>
                    <path d="M82.2438432,129.919771 C77.7094522,131.5934 77.9496595,131.422742 77.4403742,131.592247 C70.7786658,133.281551 65.06863,133.070388 64.011216,132.859225 C60.2045255,132.54248 56.1863522,129.375035 52.5911444,123.990379 C47.7270399,116.810838 43.3916423,105.619199 41.0653315,92.2103497 C40.6423659,90.3098828 40.5366245,88.4094159 40.4308831,86.508949 L40.0079174,67.6098617 C39.902176,63.3866019 40.8538487,59.1633422 42.9686767,55.3624084 C43.4973266,54.3067076 44.0259764,53.3747084 44.6062411,52.5406424 C44.4013486,52.4429105 44.1992682,52.3487131 44,52.2591947 C44.5295019,51.5191508 45.0590038,50.8848275 45.4826053,50.1447836 C53.6369343,38.832684 70.6868949,37.3525962 78.5235227,38.1983606 C79.4766261,38.3040812 82.8654382,38.7269634 87.7368555,39.0441251 C90.3843649,39.2555662 92.5023724,39.2555662 93.7731769,39.3612868 C109.552333,39.9956101 115.800455,38.0926401 123.742983,42.3214623 C125.225589,43.0615062 128.614401,44.9644763 131.579611,48.6646958 C139.945741,59.1310309 137.933634,72.6632622 137.404132,76.6806434 C135.497925,88.7327869 128.5085,96.1332259 126.390493,99.199122 C123.934179,102.816032 119.839889,107.214993 116.833146,110.272879 L118,144.402486 C118,145.158733 117.674699,145.91498 117.024096,146.239085 C114.204819,147.967649 110.192771,149.912284 105.204819,150.992636 C96.2048193,153.045306 88.5060241,151.532812 84.1686747,150.23639 C83.3012048,150.020319 82.6506024,149.156037 82.6506024,148.291755 L82.2438432,129.919771 Z" id="Combined-Shape" fill="#F3F5F8"></path>
                    <path d="M120.985785,81.2048514 C120.870714,78.489493 120.05129,75.760961 118.319421,73.3601117 C114.842076,68.4969759 108.322053,65.7952338 103.106035,67.5243487 C100.172025,68.4969759 98.2160181,70.7664393 97.9986841,70.9825787 C95.0646738,74.656948 94.4126716,78.5474566 94.4126716,78.5474566 L94.2949857,79.6998403 C86.8453282,71.8630485 77.5761718,62.176438 70.6058588,54.7276604 C66.3658813,55.9081111 59.3699184,57.0885619 51.4199606,55.3715426 C48.5579758,54.7276604 46.1199887,53.2252685 44,52.2594451 C44.5299972,51.5082492 45.0599944,50.864367 45.3779927,50.3277985 C53.6459488,38.845232 71.0298565,37.3428402 78.9798143,38.2013498 C80.0398087,38.3086635 83.4317907,38.7379183 88.4137643,39.0598594 C91.1697496,39.2744869 93.2897384,39.2744869 94.5617316,39.3818006 C110.673646,40.0256828 117.033612,38.0940361 125.08957,42.3865843 C126.573562,43.1377802 130.071543,45.0694269 133.039527,48.8254066 C142.261478,60.2006593 140.03549,74.0441272 138.975496,77.2635384 C138.2335,79.5171262 136.855507,81.0195181 136.855507,81.0195181 C131.257613,80.76949 126.075285,80.9401819 120.985785,81.2048514 Z M43.0963625,80.4367456 C41.9793314,80.2032327 41.6442221,78.6853987 42.4261439,77.8681034 C43.4314719,76.9340517 45.2187217,76 47.4527839,76 C52.0326115,76 56.9475485,79.1524245 51.8092053,80.5535021 C48.7932213,81.3707973 45.2187217,80.9037715 43.0963625,80.4367456 Z M65.0526216,81.3921925 C63.9536268,81.1610245 63.6239284,79.6584323 64.5031242,78.8493442 C65.4922195,77.9246721 67.250611,77 69.5585,77 C74.0643784,77 78.8999552,80.2363524 73.8445794,81.5077766 C70.6574947,82.4324487 67.1407116,81.8545286 65.0526216,81.3921925 Z" id="Combined-Shape" fill="#E1E5F0" fill-rule="nonzero"></path>
                    <path d="M51,87.736068 C51,86.4342969 50.2715693,85.2410066 49.1789233,85.0240448 C48.4504926,84.9155639 47.8131158,85.1325257 47.3578466,86.5427778 C46.1741468,89.9056866 48.1773311,95.3297331 49.7252463,93.7025191 C50.6357847,92.6177098 50.9089462,89.5802438 51,87.736068 Z" id="Path" fill="#E1E5F0" fill-rule="nonzero"></path>
                    <path d="M69.9620238,87.3987681 C69.8721997,86.0903491 68.9739587,85 67.8960696,85 C67.1774768,85 66.5487082,85.3271047 66.1894118,86.7445586 C65.2911708,90.2336759 67.8062455,95.4673518 69.1536069,93.6137582 C70.0518478,92.3053393 70.0518478,89.2523617 69.9620238,87.3987681 Z" id="Path" fill="#E1E5F0" fill-rule="nonzero"></path>
                    <path d="M62.03125,109.310527 C62.7884615,109.08256 64.6274038,108.512642 64.9519231,107.258824 C64.9519231,107.030857 65.0600962,106.688907 64.9519231,106.46094 C64.5192308,105.663056 63.2211538,106.11899 61.2740385,106.232973 C57.8125,106.46094 55,106.11899 55,106.11899 C55,106.11899 55.7572115,108.398659 56.2980769,109.08256 C57.3798077,110.792312 60.8413462,109.652477 62.03125,109.310527 Z" id="Path" fill="#E1E5F0" fill-rule="nonzero"></path>
                    <path d="M53.0225856,99.2888585 C52.8335473,100.440336 53.7177028,101.579275 54.8783097,101.775993 C55.1344801,101.800105 55.1344801,101.800105 55.3015056,101.813195 C57.0426102,101.949326 58.1312386,102 60,102 C60.5522847,102 61,101.552285 61,101 C61,100.447715 60.5522847,100 60,100 C58.1890749,100 57.1504433,99.9516534 55.4574031,99.8192802 L55.1234122,99.7931011 C55.1032172,99.7855887 54.9911827,99.6412696 55.0000534,99.5871419 L56.552156,88.3299261 L56.5615237,88.1933702 L56.5615237,82 C56.5615237,81.4477153 56.1138084,81 55.5615237,81 C55.0092389,81 54.5615237,81.4477153 54.5615237,82 L54.5615237,88.1247709 L53.0225856,99.2888585 Z" id="Path" fill="#E1E5F0" fill-rule="nonzero"></path>
                    <path d="M120.819265,79.1626965 C121.3296,82.2576309 120.741613,85.6271538 119.257224,88.3398425 C117.448357,91.7676919 114.894453,93.6426716 111.5993,95.0837906 C111.093292,95.3050909 110.86249,95.8946913 111.083791,96.4006997 C111.305091,96.9067082 111.894691,97.1375098 112.4007,96.9162094 C113.83267,96.289944 114.967966,95.6860977 116.282955,94.7206826 C118.222099,93.2970371 119.846003,91.5093868 121.018902,89.2865524 C122.709242,86.197733 123.376133,82.3760425 122.792618,78.8373035 C122.702763,78.2923773 122.188171,77.923469 121.643245,78.0133238 C121.098319,78.1031786 120.729411,78.6177703 120.819265,79.1626965 Z" id="Path" fill="#E1E5F0" fill-rule="nonzero"></path>
                </g>
                <g id="Text" transform="translate(85.000000, 280.000000)" fill-rule="nonzero">
                    <rect id="Rectangle" fill="#D8DEED" x="0" y="0" width="157" height="16" rx="6.5"></rect>
                    <rect id="Rectangle-Copy-6" fill="#F2F6FB" x="0" y="43" width="266" height="15" rx="6.5"></rect>
                    <rect id="Rectangle-Copy-5" fill="#D8DEED" x="171" y="0" width="95" height="16" rx="6.5"></rect>
                </g>
            </g>
        </g>
        <g id="UI-/-Icons-/-Cursor" transform="translate(779.000000, 429.000000)" fill="#D8DEED" fill-rule="nonzero">
            <path d="M67.3341804,42.305296 L1.66581957,0 C0.789072427,0.6105919 0.789072427,0.6105919 0,1.30841121 L24.5489199,75.1900312 C24.5489199,75.1900312 34.1931385,73.8816199 41.6454892,69.694704 L52.7801779,84 C57.1846559,81.5516117 60.2960158,79.6282768 62.1142578,78.2299952 C63.9324998,76.8317137 66.2277472,74.5972085 69,71.5264798 L57.8653113,57.1339564 C61.021601,52.1619938 64.1778907,47.1900312 67.3341804,42.305296 Z" id="Path"></path>
        </g>
        <g id="UI-/-Users-/-User-3-/-1" transform="translate(345.000000, 206.000000)">
            <g id="User" stroke-width="1" fill-rule="evenodd">
                <g id="Browser" fill-rule="nonzero">
                    <g id="Background" fill="#F2F6FB">
                        <rect id="Rectangle" x="0" y="0" width="367" height="329" rx="20"></rect>
                    </g>
                    <path d="M0,18.1838046 C0,8.14116664 8.1364027,0 18.1839186,0 L348.816081,0 C358.858782,0 367,8.13895854 367,18.1838046 L367,36.3676093 L0,36.3676093 L0,18.1838046 Z" id="Top-bar" fill="#E1E5F0"></path>
                    <ellipse id="Burron" fill="#FF5645" cx="22.8317972" cy="19.4524422" rx="8.4562212" ry="8.45758355"></ellipse>
                    <ellipse id="Burron" fill="#FFCB3D" cx="49.468894" cy="19.4524422" rx="8.87903226" ry="8.45758355"></ellipse>
                    <ellipse id="Burron" fill="#3ABF7C" cx="76.1059908" cy="19.4524422" rx="8.4562212" ry="8.45758355"></ellipse>
                </g>
                <g id="Text" transform="translate(71.877880, 62.586118)" fill-rule="nonzero">
                    <path d="M6.34318766,180.992288 L126.419485,180.992288 C129.922731,180.992288 132.762673,183.83223 132.762673,187.335476 C132.762673,190.838721 129.922731,193.678663 126.419485,193.678663 L6.34318766,193.678663 C2.83994185,193.678663 4.29023877e-16,190.838721 0,187.335476 C-4.29023877e-16,183.83223 2.83994185,180.992288 6.34318766,180.992288 Z M150.94457,180.992288 L217.746674,180.992288 C221.24992,180.992288 224.089862,183.83223 224.089862,187.335476 C224.089862,190.838721 221.24992,193.678663 217.746674,193.678663 L150.94457,193.678663 C147.441324,193.678663 144.601382,190.838721 144.601382,187.335476 C144.601382,183.83223 147.441324,180.992288 150.94457,180.992288 Z M112.467742,153.928021 C69.9685397,153.928021 35.516129,119.470059 35.516129,76.9640103 C35.516129,34.4579611 69.9685397,0 112.467742,0 C154.966944,0 189.419355,34.4579611 189.419355,76.9640103 C189.419355,119.470059 154.966944,153.928021 112.467742,153.928021 Z" id="Object" fill="#474BFF"></path>
                    <rect id="Rectangle-Copy-6" fill="#E1E5F0" x="0" y="216.514139" width="224.089862" height="13.5321337" rx="6.5"></rect>
                </g>
                <g id="Userpic" transform="translate(125.152074, 93.879177)" fill-rule="nonzero">
                    <path d="M84.7008908,67.9555994 C87.2241737,69.3595247 92.0838296,72.2551207 97.5976699,76.2914061 C104.326424,81.3806355 98.9060388,91.471349 90.5885508,89.3654609 L78.9066857,86.3821196 C75.5423086,85.5046662 73.2059355,82.7845609 73.0190257,79.5379835 L72.7386609,74.7119901 C72.4582962,70.4124687 76.1030381,66.81491 80.6823292,66.81491 L80.6823292,66.81491 C82.084153,66.9026554 83.4859768,67.2536367 84.7008908,67.9555994 Z" id="Path" fill="#D8DEED"></path>
                    <path d="M70.0819325,58.0048377 L77.799845,56.6658098 L78.6219776,61.7085258 L78.5306295,68.0119209 L81.1797235,91.3344826 C81.1797235,91.3344826 58.1600102,101.509963 54.5060875,96.9174897 L52.3190128,78.2325013 C51.9704439,78.3474573 51.613217,78.4642374 51.2471396,78.5828335 C43.3697014,81.1614485 43.827692,80.9772617 43.2781033,81.1614485 C37.4158237,82.450756 32.4695253,81.9902891 31.5535441,81.8061023 C23.9509003,80.793075 15.7986678,66.1502253 13.0507243,45.6133984 C12.7759299,43.9557173 12.7759299,42.2980362 12.6843318,40.6403551 L12.9591262,24.1556376 C12.9591262,20.4719018 13.9667055,16.8802594 15.7986678,13.749084 C15.9818641,13.3807105 16.1650603,13.1044303 16.3482565,12.8281501 C16.9894434,11.8151228 17.6306302,10.9862822 18.271817,10.2495351 C20.7449662,7.30254644 23.676106,5.18439838 26.6988439,3.71090407 C33.8434971,0.763915462 41.9041315,0.48763528 46.3924393,1.13228904 C47.0336261,1.22438243 49.0487847,1.50066261 51.8883264,1.86903619 C54.5446718,2.51368995 57.1094191,2.88206353 59.7657646,2.97415692 C61.2313345,3.06625031 62.3305119,4.35555783 62.3305119,5.82905214 L61.4145307,29.404961 C61.3229326,31.6152025 63.7960818,32.9966034 65.6280441,31.7072959 C65.6280441,31.7072959 65.7196422,31.7072959 65.7196422,31.6152025 C65.9944366,31.4310157 68.0095952,30.2338016 70.4827444,30.1417082 C74.8794541,30.0496148 79.2761637,33.825444 80.6501355,38.4301137 C82.1157054,43.2189702 80.3753412,48.09992 77.4442014,51.139002 C75.3374447,53.2571501 72.8642955,54.1780841 71.2155293,54.638551 C70.3911463,54.7306444 69.5667632,55.4673916 69.383567,56.2962321 C69.383567,56.2962321 69.383567,56.3883255 69.2919689,56.4804189 L70.0819325,58.0048377 Z" id="Combined-Shape" fill="#F2F6FB"></path>
                    <path d="M69.3476281,55.1131179 C65.7958891,48.4896524 61.6239238,40.8303629 58.7611381,36.5951036 C52.3228772,29.4472745 45.8846163,22.3910843 39.3543803,15.2432552 C35.6753741,16.1596436 29.6050138,16.9843931 22.7068772,15.3348941 C20.4994735,14.7850611 18.0038093,13.6528996 16.3482565,12.8281501 C16.9920826,11.8201229 17.9984668,10.5000091 18.6422929,9.76689842 C21.1256221,6.83445573 24.0346373,5.02063646 27.0698175,3.55441512 C34.2438796,0.621972423 42.5735107,0.489402924 47.0802933,1.13087476 C47.7241194,1.2225136 49.7475728,1.4974301 52.5988026,1.86398544 C53.426579,1.95562427 54.2543554,2.04726311 55.2660822,2.13890194 C57.6574362,2.32217961 59.4969393,2.50545728 60.6006412,2.59709611 C74.5808648,3.51348445 80.0073989,1.95562427 86.9975107,5.80445531 C88.2851629,6.53756598 91.2283679,8.27870383 93.7116971,11.486063 C98.7037615,17.9265095 99.1977995,25.5650019 98.8505814,30.7890174 C100.361502,37.3957754 103.099206,53.7859383 95.7906507,63.0277089 C86.4860707,74.79348 87.6026203,78.655527 87.6026203,78.655527 L83.1489208,75.6029419 L84.562212,77.8097686 L80.1503184,76.5346253 C76.2637864,74.3049145 73.7615336,71.2282252 72.1562019,68.0684844 L71.8778802,67.8777214 L71.9822775,67.7187012 C69.4721243,62.5596556 69.2976043,57.2547599 69.3476281,55.1131179 Z" id="Combined-Shape" fill="#D8DEED"></path>
                    <path d="M55.8110599,46.3788859 L60.3462476,36.0764117 C60.3462476,36.0764117 61.7975077,33.1588968 64.9721391,31.061933 C65.2442503,30.8795883 67.2397329,29.6943479 69.6887343,29.6031756 C74.0425145,29.5120033 78.3962947,33.2500692 79.756851,37.8086861 C81.2988148,42.5496477 79.5754435,47.3817816 76.6729233,50.2992965 C73.7704032,53.2168113 70.0515493,53.8550177 68.8724005,54.1285347 L64.1558053,53.672673" id="Path" fill="#F2F6FB"></path>
                    <path d="M22.9958426,51.8069802 C20.9068686,55.711108 16.8857866,58.3573265 12.2615207,58.3573265 C5.48265032,58.3573265 -7.17648163e-13,52.670699 -7.17648163e-13,45.6709512 C-7.17648163e-13,38.6712033 5.48265032,32.9845758 12.2615207,32.9845758 C18.3935152,32.9845758 23.4648706,37.637689 24.3769043,43.7067635 L27.9063852,43.4125927 C27.9861911,36.6991388 33.6408443,31.2930591 40.5898618,31.2930591 C45.812073,31.2930591 50.3032822,34.3461836 52.2467783,38.7128709 L58.1428328,37.2386198 C58.5959128,37.1253316 59.0550302,37.4008464 59.1683002,37.8539994 C59.2815702,38.3071525 59.0060998,38.7663438 58.5530198,38.8796321 L52.8256548,40.311704 C53.1180469,41.3450132 53.2741935,42.4329823 53.2741935,43.5565553 C53.2741935,50.3365178 47.5884821,55.8200514 40.5898618,55.8200514 C34.1315525,55.8200514 28.7912577,51.1505199 28.0051823,45.1017381 L25.2439031,45.3318818 L24.5230415,53.7715104 C24.5230415,53.918005 24.6521721,54.0887733 24.6761838,54.0915593 C25.2466181,54.1379819 25.5974824,54.1379819 27.0396873,54.1088267 C27.7227453,54.0950182 28.1936567,54.0887733 28.7511521,54.0887733 C29.2181763,54.0887733 29.5967742,54.4674322 29.5967742,54.9345316 C29.5967742,55.4016311 29.2181763,55.78029 28.7511521,55.78029 C28.2072507,55.78029 27.7465027,55.7864001 27.0738645,55.799998 C25.5891672,55.8300122 25.2019658,55.8304776 24.566737,55.7797335 C23.5783745,55.7527829 22.8318385,54.7512279 22.8348146,53.6998095 L22.9958426,51.8069802 Z M20.0178786,44.1487534 C20.283136,45.7380214 20.5483933,48.2985086 19.8410404,49.4463133 C18.6915919,51.3004592 15.5969229,47.0624113 16.1274376,44.0604607 C16.3926949,42.8243634 17.0116287,42.2946074 17.7189817,42.2946074 C18.8684301,42.2063148 19.8410404,43.0009488 20.0178786,44.1487534 Z M30.8482949,60.8895956 C29.961884,61.2596479 27.3832339,62.3698047 26.496823,61.2596479 C26.0939089,60.7970825 25.3686636,59.2243603 25.3686636,59.2243603 C25.3686636,59.2243603 27.5443996,59.2243603 30.1230496,58.7617949 C31.5735403,58.4842557 32.6211168,58.1142034 32.9434481,58.5767688 C33.0240309,58.6692818 32.9434481,58.9468211 32.9434481,59.1318472 C32.7822825,60.0569779 31.4123746,60.7045694 30.8482949,60.8895956 Z M50.7629193,39.543471 C49.1204819,35.6974647 45.1879769,32.9845758 40.5898618,32.9845758 C34.5118045,32.9845758 29.5967742,37.7248329 29.5967742,43.5565553 C29.5967742,49.3882776 34.5118045,54.1285347 40.5898618,54.1285347 C46.667919,54.1285347 51.5829493,49.3882776 51.5829493,43.5565553 C51.5829493,42.4735492 51.4134397,41.4281857 51.0984512,40.4438342 C50.9370527,40.3310912 50.8140719,40.1617885 50.7625754,39.9557692 C50.7274965,39.8154311 50.7297015,39.6745139 50.7629193,39.543471 Z M12.2615207,56.6658098 C18.0923037,56.6658098 22.8317972,51.7499876 22.8317972,45.6709512 C22.8317972,39.5919147 18.0923037,34.6760925 12.2615207,34.6760925 C6.43073773,34.6760925 1.69124424,39.5919147 1.69124424,45.6709512 C1.69124424,51.7499876 6.43073773,56.6658098 12.2615207,56.6658098 Z" id="Combined-Shape" fill="#D8DEED"></path>
                </g>
            </g>
            <path d="M162.928017,136.336414 C162.751179,135.188609 161.778568,134.393975 160.62912,134.482268 C159.921767,134.482268 159.302833,135.012024 159.037576,136.248121 C158.507061,139.250072 161.60173,143.48812 162.751179,141.633974 C163.458532,140.486169 163.193274,137.925682 162.928017,136.336414 Z" id="Path" fill="#D8DEED" fill-rule="nonzero"></path>
        </g>
    </g>
</svg>