<svg width="22" height="18" viewBox="0 0 22 18" fill="none" xmlns="http://www.w3.org/2000/svg">
<path d="M21 4.26751L19.1208 3.46182L20.1051 1.31332L17.8143 2.07425L17.8143 2.07425C17.0847 1.39383 16.1272 1.01069 15.1298 1V1C12.9078 1.00492 11.1078 2.80564 11.1029 5.02844V5.92365C7.93512 6.57715 5.17002 4.8494 2.60179 1.89521C2.15436 4.28244 2.60179 6.07285 3.94407 7.26646L1 6.81886L1 6.81886C1.23474 8.77576 2.83638 10.2838 4.80313 10.3997L2.34228 11.2949C3.23714 13.0853 4.86577 13.3628 7.04027 13.5329L7.04027 13.5329C5.26293 14.7456 3.15085 15.3717 1 15.3233C12.4183 20.3992 19.1208 12.9421 19.1208 6.37125V5.62823L21 4.26751Z" stroke="#455D65" stroke-width="1.5" stroke-linecap="round" stroke-linejoin="round"/>
</svg>
