<?xml version="1.0" encoding="UTF-8"?>
<svg width="1700px" height="1200px" viewBox="0 0 1700 1200" version="1.1" xmlns="http://www.w3.org/2000/svg" xmlns:xlink="http://www.w3.org/1999/xlink">
    <!-- Generator: Sketch 56.1 (81669) - https://sketch.com -->
    <title>Work at home</title>
    <desc>Created with Sketch.</desc>
    <g id="Work-at-home" stroke="none" stroke-width="1" fill="none" fill-rule="evenodd">
        <g id="Group" transform="translate(368.000000, 95.000000)">
            <g id="UI-/-Social-/-Chat-1-/-1" transform="translate(488.000000, 0.000000)">
                <g id="Socials-" stroke-width="1" fill-rule="evenodd">
                    <g id="Browser" fill="#F2F6FB" fill-rule="nonzero">
                        <g id="Background">
                            <rect x="0" y="0" width="402.223507" height="302" rx="20"></rect>
                        </g>
                    </g>
                    <g id="Userpic" transform="translate(24.071291, 204.956298)">
                        <g>
                            <path d="M36.4055143,73.5472682 C16.2993039,73.5472682 5.47117907e-13,57.0831514 5.47117907e-13,36.7736341 C5.47117907e-13,16.4641168 16.2993039,1.7408297e-13 36.4055143,1.7408297e-13 C56.5117246,1.7408297e-13 72.8110286,16.4641168 72.8110286,36.7736341 C72.8110286,57.0831514 56.5117246,73.5472682 36.4055143,73.5472682 Z M36.4850492,36.6194064 C39.1714853,36.6194064 41.3492721,34.4478744 41.3492721,31.7691539 C41.3492721,29.0904334 39.1714853,26.9189014 36.4850492,26.9189014 C33.7986132,26.9189014 31.6208264,29.0904334 31.6208264,31.7691539 C31.6208264,34.4478744 33.7986132,36.6194064 36.4850492,36.6194064 Z M36.4850492,39.0445326 C31.6158811,39.0445326 27.6686453,42.9804317 27.6686453,47.8356153 L45.3014531,47.8356153 C45.3014531,42.9804317 41.3542174,39.0445326 36.4850492,39.0445326 Z" id="Combined-Shape" fill="#D8DEED" fill-rule="nonzero"></path>
                            <g id="Icons-/-User" transform="translate(27.617976, 26.918901)"></g>
                        </g>
                    </g>
                    <g id="Send-Message" fill-rule="nonzero">
                        <path d="M24.0712909,66.11615 C24.0712909,63.9024928 25.857285,62.1079692 28.0748995,62.1079692 L283.32143,62.1079692 C285.532562,62.1079692 287.325039,63.9054988 287.325039,66.11615 L287.325039,175.5282 C287.325039,177.741857 285.539045,179.536381 283.32143,179.536381 L28.0748995,179.536381 C25.8637675,179.536381 24.0712909,177.738851 24.0712909,175.5282 L24.0712909,66.11615 Z M122.993851,234.880252 L323.910545,234.880252 C327.940211,234.880252 331.206901,238.146942 331.206901,242.176608 C331.206901,246.206274 327.940211,249.472964 323.910545,249.472964 L122.993851,249.472964 C118.964185,249.472964 115.697495,246.206274 115.697495,242.176608 C115.697495,238.146942 118.964185,234.880252 122.993851,234.880252 Z M122.993851,258.593409 L360.437563,258.593409 C364.467229,258.593409 367.733919,261.860099 367.733919,265.889765 C367.733919,269.919431 364.467229,273.186121 360.437563,273.186121 L122.993851,273.186121 C118.964185,273.186121 115.697495,269.919431 115.697495,265.889765 C115.697495,261.860099 118.964185,258.593409 122.993851,258.593409 Z M122.993851,211.167095 L272.77272,211.167095 C276.802386,211.167095 280.069076,214.433785 280.069076,218.463451 C280.069076,222.493117 276.802386,225.759807 272.77272,225.759807 L122.993851,225.759807 C118.964185,225.759807 115.697495,222.493117 115.697495,218.463451 C115.697495,214.433785 118.964185,211.167095 122.993851,211.167095 Z M0,17.0796915 C0,7.64683836 7.64620942,0 17.0750385,0 L385.924961,0 C395.355245,0 403,7.64476434 403,17.0796915 L403,34.159383 L0,34.159383 L0,17.0796915 Z" id="Combined-Shape" fill="#E1E5F0"></path>
                        <g id="Button" transform="translate(305.606549, 153.848916)" fill="#A339FF">
                            <g>
                                <path d="M12.8437325,0 L60.2823085,0 C67.3757061,1.11314619e-14 73.126041,5.75033491 73.126041,12.8437325 C73.126041,19.9371301 67.3757061,25.687465 60.2823085,25.687465 L12.8437325,25.687465 C5.75033491,25.687465 8.68690665e-16,19.9371301 0,12.8437325 C-8.68690665e-16,5.75033491 5.75033491,1.303036e-15 12.8437325,0 Z"></path>
                            </g>
                        </g>
                    </g>
                    <g id="Text" transform="translate(115.697495, 211.167095)"></g>
                </g>
                <ellipse id="Burron-Copy" fill="#FF5645" fill-rule="nonzero" cx="22.9065511" cy="17.4678663" rx="7.37668593" ry="7.37532134"></ellipse>
                <ellipse id="Burron-Copy-2" fill="#FFCB3D" fill-rule="nonzero" cx="46.977842" cy="17.4678663" rx="7.37668593" ry="7.37532134"></ellipse>
                <ellipse id="Burron-Copy-3" fill="#3ABF7C" fill-rule="nonzero" cx="71.8256262" cy="17.4678663" rx="7.37668593" ry="7.37532134"></ellipse>
            </g>
            <g id="Chair" transform="translate(542.000000, 450.300000)" fill="#D8DEED" fill-rule="nonzero">
                <path d="M297.971934,274.3 L297.971934,202.4 C297.971934,158.8 297.971934,115.3 297.971934,71.8 L297.971934,5.1 C297.971934,2.7 256.471934,0.7 206.571934,0.7 L196.171934,0.7 C146.371934,0.7 104.771934,2.7 104.771934,5.1 L104.771934,274.5 C104.771934,276.9 146.271934,278.9 196.171934,278.9 L206.571934,278.9 C256.371934,279 297.971934,276.9 297.971934,274.3 Z" id="Path"></path>
                <path d="M2.87193369,521.6 L3.27193369,521.8 C5.37193369,522.9 8.07193369,522.3 9.07193369,520.4 L126.171934,305.3 C127.271934,303.3 126.371934,300.8 124.271934,299.7 L123.871934,299.5 C121.771934,298.4 119.071934,299 118.071934,300.9 L89.0719337,354.1 C70.1719337,388.9 51.2719337,423.6 32.2719337,458.4 L0.971933689,515.8 C-0.128066311,517.8 0.771933689,520.4 2.87193369,521.6 Z" id="Path"></path>
                <path d="M293.671934,296 L220.371934,296 C175.971934,296 131.571934,296 87.2719337,296 L19.2719337,296 C16.8719337,296 14.7719337,298 14.7719337,300.4 L14.7719337,300.9 C14.7719337,303.3 16.7719337,305.3 19.2719337,305.3 L293.871934,305.3 C296.271934,305.3 298.371934,303.3 298.371934,300.9 L298.371934,300.4 C298.371934,298 296.271934,296 293.671934,296 Z" id="Path"></path>
                <path d="M329.371934,515.8 L298.071934,458.4 C279.171934,423.6 260.271934,388.9 241.271934,354.1 L212.271934,300.9 C211.271934,299 208.571934,298.3 206.471934,299.5 L206.071934,299.7 C203.971934,300.8 203.071934,303.4 204.171934,305.3 L321.271934,520.4 C322.271934,522.3 324.971934,523 327.071934,521.8 L327.471934,521.6 C329.571934,520.4 330.471934,517.8 329.371934,515.8 Z" id="Path"></path>
            </g>
            <g id="Animals-/-Cat" transform="translate(71.901212, 350.000000)">
                <g id="Cat" transform="translate(132.000000, 339.000000)">
                    <path d="M168.003138,27.5456092 C175.191827,31.1178434 177.646295,34.6535129 178.0285,37.7457213 C178.589568,42.9486553 177.37392,47.1295844 174.475068,54.00489 C168.864387,67.7555012 164.095308,81.6919315 160.261342,96 C159.138565,95.7581674 158.018426,95.5032346 156.901256,95.2353117 C159.24398,104.168373 159.161934,111 159.161934,111 C54.094627,111 2.43714551,111 4.18948926,111 C6.81800488,111 25.8175946,59.5527966 92.8620545,54.3240427 C94.788257,54.1711369 96.6585047,54.0737989 98.4744227,54.028962 C98.8844244,52.3227798 99.5887984,50.7821476 100.867682,48.4527773 C98.0584315,41.5674988 95.8957568,25.4297278 95.1617549,18.7096307 C95.1617549,18.4334268 95.256031,18.1572228 95.3503071,17.8810188 C95.7274114,17.1444749 96.7644485,16.7762029 97.6129333,17.1444749 L118.835691,27.5455568 C122.459847,26.2199886 126.293852,25.0146398 130.337707,23.809291 C134.167475,22.6384849 137.997242,21.6405772 141.598582,20.7247849 L149.196357,0.983167934 C149.476634,0.227452352 150.41089,-0.244869887 151.158295,0.132987904 C151.438571,0.227452352 151.625423,0.416381247 151.812274,0.699774591 C155.744473,6.24757449 165.405268,20.393312 168.003138,27.5456092 Z" id="Base-Color" fill="#FFCB3D" fill-rule="nonzero"></path>
                    <path d="M0.161754883,104.662178 C-0.629325846,99.657321 1.48124641,96.611924 6.49347166,95.5259865 C27.1648402,94.3814552 45.5581416,95.9156349 61.673376,100.128526 C77.7886104,104.341416 87.1741644,108.0193 89.8300381,111.162178 L6.49347166,111.162178 C2.95515934,111.162178 0.161754883,108.29453 0.161754883,104.662178 Z M164.336443,70.8033851 C166.746425,68.0102936 174.161755,56 174.161755,56 C174.161755,56 166.004892,80.7654116 161.092236,96.127415 C161.370311,94.8239723 157.477263,105.251514 157.013805,102.551526 L157.013805,102.458423 C156.364963,99.3860218 153.86229,97.1515486 150.710774,96.9653425 C147.744643,96.7791364 144.593127,96.6860333 141.256229,96.6860333 C136.992414,96.6860333 132.635908,96.9653425 128.372094,97.5239608 L122.161755,78.6240414 C128.18671,81.6964421 135.04589,82.8136787 141.719687,82.2550604 C144.036978,82.0688543 146.261577,81.6033391 148.486176,80.9516177 C154.603823,79.1826597 160.072628,75.5516407 164.336443,70.8033851 Z M142.038323,47.9508148 C143.353683,49.4244341 145.496448,49.9337066 147.354307,49.0939998 C149.044627,48.1101289 149.941031,46.2071411 149.583243,44.2728257 C149.432566,43.4582167 149.970788,42.6756974 150.785397,42.5250199 C151.600006,42.3743425 152.382526,42.9125654 152.533203,43.7271743 C153.129396,46.9503788 151.608548,50.1340505 148.780976,51.7341109 L148.677173,51.7876267 C146.163638,52.9619804 143.327866,52.6348218 141.178551,51.1615354 C140.507403,52.7722826 139.169576,54.1497979 137.368144,54.9639027 C133.745865,56.3400917 129.685891,54.9849574 127.859107,51.7852635 C127.448366,51.0658311 127.698609,50.1496442 128.418042,49.7389027 C129.137474,49.3281611 130.053661,49.5784045 130.464402,50.2978369 C131.544274,52.1892809 134.035549,53.0208164 136.216473,52.1953404 C137.867754,51.4473331 138.811847,49.9175879 138.641612,48.4187104 C138.636345,48.4090202 138.631203,48.3994042 138.626188,48.3898669 C138.192014,47.6349862 138.105179,46.6913853 138.192014,45.8421444 C138.278849,45.1816238 138.626188,44.6154632 139.060362,44.332383 C139.92871,43.6718623 141.231232,44.0493027 141.75224,44.9929036 C142.212051,45.9013736 142.249292,47.0066391 142.038323,47.9508148 Z M116.706228,47.9929036 C117.760386,49.9744655 116.794075,52.8052683 115.739916,52.9939885 C114.949297,53.0883486 113.982985,52.0503875 113.631599,51.3898669 C113.192367,50.6349862 113.10452,49.6913853 113.192367,48.8421444 C113.280213,48.1816238 113.631599,47.6154632 114.070832,47.332383 C114.949297,46.6718623 116.179149,47.0493027 116.706228,47.9929036 Z M161.740963,31.9929036 C162.716744,33.9744655 161.82967,36.6165481 160.765181,36.9939885 C159.966815,37.0883486 158.991033,36.0503875 158.636204,35.3898669 C158.192667,34.6349862 158.103959,33.6913853 158.192667,32.8421444 C158.281374,32.1816238 158.636204,31.6154632 159.079741,31.332383 C159.966815,30.6718623 161.208719,31.0493027 161.740963,31.9929036 Z" id="Color" fill="#DE6903" fill-rule="nonzero"></path>
                </g>
            </g>
            <g id="Characters-sitting-/-Woman-sitting/-1" transform="translate(388.000000, 257.000000)">
                <g id="Woman" transform="translate(97.323755, 63.455026)">
                    <g id="Legs" transform="translate(0.842345, 297.386243)" fill-rule="nonzero">
                        <path d="M4.38316131,346.634921 L161.598815,346.634921 C163.9526,346.634921 165.86072,348.54304 165.86072,350.896825 C165.86072,353.25061 163.9526,355.15873 161.598815,355.15873 L4.38316131,355.15873 C2.0293763,355.15873 0.121256548,353.25061 0.121256548,350.896825 C0.121256548,348.54304 2.0293763,346.634921 4.38316131,346.634921 Z M180.722242,346.634921 L280.121804,346.634921 C282.475589,346.634921 284.383709,348.54304 284.383709,350.896825 C284.383709,353.25061 282.475589,355.15873 280.121804,355.15873 L180.722242,355.15873 C178.368457,355.15873 176.460337,353.25061 176.460337,350.896825 C176.460337,348.54304 178.368457,346.634921 180.722242,346.634921 Z" id="Base" fill="#FF5645"></path>
                        <path d="M279.010835,346.634921 L180.926876,346.634921 L188.791425,294.901057 L258.690177,294.901057 L279.010835,346.634921 Z M164.237131,347.549494 C163.511451,346.97674 162.595051,346.634921 161.598815,346.634921 L4.38316131,346.634921 C4.22807067,346.634921 4.07491487,346.643205 3.92411228,346.659354 C3.86907736,346.223721 3.84373484,345.707484 3.85454852,345.087969 C3.96266678,344.42676 3.97612052,343.669203 4.1822652,342.914952 C5.41913332,338.389448 6.91813041,335.384015 11.3024467,332.712253 C15.6867629,330.040491 20.1623795,327.654466 24.8256419,325.55583 C42.0251007,317.609965 47.9021748,317.710792 59.2111057,310.421658 C63.8911853,307.376076 68.1942915,303.85041 72.2134064,300.035701 C74.8928164,297.492562 80.6844314,293.360944 89.5882514,287.640845 L158.589525,287.848797 L164.237131,347.549494 Z" id="Shoes" fill="#474961"></path>
                        <path d="M278.203931,124.016043 C278.045563,170.356115 276.453175,231.917148 275.904015,253.09346 C275.807655,256.042943 276.193096,264.023898 270.411486,269.055369 C268.773364,270.530111 267.135241,271.137357 264.051716,272.4386 C261.642712,273.479594 250.850375,276.602576 229.265701,278.337566 C227.916659,278.424316 226.471257,278.511065 225.025854,278.424316 C202.766659,277.64357 197.27413,276.255578 188.698076,273.826592 C183.012827,272.265101 178.869341,267.407129 178.29118,261.681661 C175.593096,236.437555 168.173364,167.645196 167.595203,161.572731 C166.824322,153.852025 166.149801,145.090325 165.57164,135.114131 L165.265057,130.443692 L138.598336,119.933172 C149.735003,162.56566 160.538694,206.7227 170.196927,250.621435 C170.678728,252.772677 171.545969,257.612972 169.040605,262.184362 C164.415318,270.878967 152.370299,270.430791 123.558613,273.836925 C89.6398389,277.870504 75.4748964,282.083354 67.7660841,273.478385 C65.16436,270.699697 64.2971186,267.831373 64.0080382,266.486847 C56.973747,231.618794 22.0913715,130.420769 8.50458988,57.8163405 C8.50458988,57.6370703 8.40822973,57.5474352 8.40822973,57.368165 C4.07202283,33.9734046 20.3568887,11.9231707 44.5432872,8.96521251 C52.5411799,7.97922644 59.7681914,7.02915122 67.7660841,6.04316515 C70.1889194,5.76018389 72.6068546,5.67844079 74.9984809,5.78544753 L194.390517,3.71520066 C265.202245,3.09919723 255.451927,-5.12013046 277.59427,5.06718743 C292.355832,11.8587327 302.406522,31.1935839 307.746341,63.0717411 C309.658351,87.310323 299.810881,107.62509 278.203931,124.016043 Z" fill="#A339FF"></path>
                        <path d="M278.325448,123.923725 C278.333642,121.502913 278.337915,119.123753 278.337915,116.794181 C278.337915,98.7502839 278.434276,83.2221223 278.626996,73.245929 C278.819716,65.351724 280.265118,21.9769708 261.571249,12.9550221 C259.933126,12.1742765 258.295004,11.56703 255.018758,10.4392864 C252.417034,9.57179135 238.926613,5.06081702 221.581785,5.75481307 C210.307647,6.18856061 193.34826,6.88255666 179.376038,17.726245 C160.104007,32.7339096 160.585808,56.4165248 160.778528,60.2335031 L165.390599,130.493174 L138.738112,119.988263 C131.313402,91.5635208 123.740482,63.8160113 116.260138,37.2740989 C111.149739,19.209889 94.0689957,6.70618259 75.3323856,5.77965808 L194.390517,3.71520066 C265.202245,3.09919723 255.451927,-5.12013046 277.59427,5.06718743 C292.355832,11.8587327 302.406522,31.1935839 307.746341,63.0717411 C309.654763,87.2648375 299.847799,107.548832 278.325448,123.923725 Z" id="Shadow-Legs" fill="#444444" opacity="0.176985679"></path>
                    </g>
                    <g id="Body" transform="translate(9.154215, 0.000000)" fill-rule="nonzero">
                        <path d="M168.460436,124.463283 C169.619639,123.96335 170.805343,123.517695 172.016654,123.129804 L192.580738,116.264159 C193.772205,116.046739 194.958942,115.856573 196.13999,115.693546 C197.760834,113.834012 201.062141,112.257412 206.786197,110.499998 C227.114354,104.149272 253.059803,114.710445 262.300918,138.375998 C270.354275,158.99982 281.052737,182.295428 280.055729,182.601531 C279.8431,182.66694 275.17443,186.007455 268.777635,188.076039 C278.029162,222.990499 283.013854,246.363103 283.731718,258.193881 C285.161497,281.757366 277.236254,297.550477 250.378308,299.551958 C223.520362,301.553439 186.139173,304.372882 181.746635,296.559389 C178.922446,291.535692 165.648341,260.517309 141.924319,203.504241 C133.054639,206.375078 128.422765,207.844801 128.028697,207.91341 C126.791364,208.128416 122.581885,194.262268 119.841083,172.336525 C116.696326,147.177003 131.955911,126.194395 157.243993,121.90215 C161.424593,121.174999 165.163408,122.02871 168.460436,124.463283 Z" id="T-shirt" fill="#FF5645"></path>
                        <path d="M168.521322,124.508452 C143.369143,134.940741 130.881267,170.669237 139.256512,197.089425 C140.182467,199.255322 141.093967,201.386398 141.991013,203.482654 C133.077857,206.367711 128.423752,207.84463 128.028697,207.91341 C126.791364,208.128416 122.581885,194.262268 119.841083,172.336525 C116.696326,147.177003 131.955911,126.194395 157.243993,121.90215 C161.450346,121.17052 165.209453,122.039287 168.521315,124.508453 Z" id="Combined-Shape" fill="#444444" opacity="0.176985679"></path>
                        <path d="M127.002682,127.449623 C127.002682,127.449623 125.171839,134.647506 134.904215,132.658617 C144.63659,130.669728 147.431034,129.722639 147.431034,129.722639 L144.92567,123.187718 L127.002682,127.449623 Z" id="Finger" fill="#482D1F"></path>
                        <path d="M182.025138,122.386467 L199.947318,206.058088 L204.20635,183.343608 C226.664354,187.74358 244.94106,189.943204 259.036469,189.942477 C259.111959,189.942474 259.187397,189.942124 259.26278,189.941434 C256.087621,202.089055 248.562014,254.800717 236.853257,275.195654 C222.05181,300.977601 213.413273,303.808967 191.556268,301.70198 C189.318149,301.486228 187.207533,301.090615 185.215061,300.515388 C186.170618,300.826541 187.155276,301.088372 188.170477,301.300421 L75.0931841,303.038128 L75.083934,303.068783 L74.7405612,303.043547 L74.3035888,303.050262 C74.0966103,303.053443 73.8938824,303.024582 73.7014095,302.967175 L27.4362278,299.566919 C20.0126077,299.021321 13.1788547,295.320074 8.66578654,289.400612 L3.46652535,282.581121 C2.2340605,280.964587 1.43643579,279.059175 1.14976944,277.04672 C0.223341183,270.543009 4.7446222,264.519691 11.2483332,263.593262 L25.0714706,261.62421 C34.5469757,260.274462 44.1671816,260.292041 53.6376907,261.676409 L82.1775701,265.848277 C103.846179,259.038337 132.761751,250.094189 139.981265,248.552765 L131.016639,206.954422 L141.61361,202.794921 C144.940444,210.389273 148.07093,217.522726 151.005071,224.195279 C147.681024,192.492755 148.054968,157.482432 144.057853,126.381959 L134.036973,126.597242 C128.062644,128.964967 115.535824,132.942744 114.186782,124.513644 C114.186782,124.513644 130.760728,117.789305 142.420307,112.864437 L143.287548,112.106766 C144.058429,111.443803 144.73295,111.064967 145.696552,110.78084 C145.889272,110.686131 146.081992,110.686131 146.274713,110.686131 L146.914509,110.594426 C145.179474,110.724049 143.960781,110.693119 143.538036,110.647174 C135.478196,110.294457 125.599441,96.0276746 120.846806,75.2355701 C120.407656,73.5620586 120.256486,71.8637839 120.009322,70.1737635 L118.794,53.2606011 C118.458066,49.4866572 119.186459,45.7162631 120.820785,42.3433221 C120.979178,41.9494188 121.14597,41.6498642 121.312762,41.3503095 C121.900733,40.3490425 122.488704,39.3477755 123.093472,38.5352057 C125.416549,35.2931808 128.295178,32.8590212 131.328589,31.0770473 C138.547333,27.4140464 146.977962,26.4989592 151.732032,26.6605835 C152.412385,26.6971511 154.549436,26.7985994 157.558827,26.9201064 C160.401427,27.341168 163.122837,27.4874383 165.915046,27.3424083 C167.45934,27.304686 168.728839,28.5265132 168.863212,30.0360908 L170.053253,54.2718763 C170.061578,54.4511019 170.108674,54.7039419 170.19454,55.0303961 C179.897794,51.0843525 186.844587,53.3357565 191.03492,61.784608 C197.320418,74.4578854 191.628765,71.7159742 188.834119,75.0936198 C186.819431,77.4534895 184.311591,78.6198451 182.6257,79.2401679 C182.310967,79.306626 181.989845,79.4878996 181.706558,79.7396018 L189.254036,79.8110497 L190.588284,85.0202813 L191.080175,91.6329376 L196.039156,115.829846 C196.039156,115.829846 189.044595,119.664446 182.025138,122.386467 Z M165.172324,107.988117 L164.605424,105.269366 C164.368403,105.368523 164.127511,105.468823 163.882691,105.57027 C155.862406,108.921912 156.325576,108.691942 155.766412,108.930166 C154.564768,109.298908 153.394949,109.593085 152.284301,109.82693 L160.921456,108.602533 L165.172324,107.988117 Z M243.979407,592.561799 L180.657107,592.561799 L182.020891,571.638556 C189.802328,573.806059 195.910479,575.076619 216.835241,575.810559 C218.280644,575.897309 219.726046,575.810559 221.075088,575.72381 C231.374151,574.895964 239.216131,573.752116 244.862721,572.669214 L250.378308,592.287301 L243.979407,592.561799 Z M147.519569,567.312758 L150.277655,585.235041 L80.9133523,585.235041 L85.4883225,575.078101 C93.2497943,574.189908 102.994502,572.69461 115.368,571.223168 C130.002866,569.493026 140.311729,568.757343 147.519569,567.312758 Z" id="Skin" fill="#DB9E75"></path>
                        <path d="M171.060334,107.263841 L167.418337,107.764984 L165.381028,108.059454 C165.312389,108.040597 165.243287,108.021026 165.173721,108.000741 L164.603406,105.264027 L174.945537,100.88154 C173.552766,104.034284 172.257698,106.161717 171.060334,107.263841 Z" id="Shadow" fill="#482D1F"></path>
                        <path d="M126.952009,73.1894544 C127.295166,74.8712203 127.922692,77.5743119 127.263922,78.8668792 C126.192372,80.9555074 122.42948,76.7156798 122.719898,73.4583008 C122.890301,72.1126572 123.511866,71.4887845 124.279813,71.4227491 C125.51933,71.2210929 126.650843,71.9794315 126.952009,73.1894544 Z M147.431037,69.622128 C147.774194,71.3038939 148.40172,74.0069855 147.742951,75.2995527 C146.671401,77.3881809 142.908509,73.1483534 143.198926,69.8909744 C143.36933,68.5453307 143.990894,67.9214581 144.758842,67.8554227 C145.998359,67.6537664 147.129872,68.4121051 147.431037,69.622128 Z" id="Eyes" fill="#482D1F"></path>
                        <path d="M132.149769,72.7068081 L131.282515,82.1777076 C131.278648,83.3487961 132.167571,84.4409094 133.302211,84.4409094 C133.96767,84.4940193 134.395053,84.4940193 136.111496,84.461783 C136.878304,84.4473817 137.40365,84.4409094 138.023859,84.4409094 C138.556041,84.4409094 138.98746,84.0168828 138.98746,83.4938195 C138.98746,82.9707562 138.556041,82.5467295 138.023859,82.5467295 C137.389006,82.5467295 136.85271,82.5533367 136.074677,82.5679488 C134.429222,82.5988519 134.028622,82.5988519 133.376116,82.5495192 C133.338346,82.5467295 133.205851,82.3839487 133.205851,82.2626026 L134.069214,72.8765981 C134.116917,72.3556403 133.725906,71.8953119 133.195866,71.8484257 C132.665826,71.8015395 132.197472,72.1858504 132.149769,72.7068081 Z" id="Nose" fill="#482D1F" transform="translate(135.134987, 78.164194) rotate(-5.000000) translate(-135.134987, -78.164194) "></path>
                        <path d="M140.428968,89.6958085 C141.103115,89.5073689 142.740021,88.8467553 142.931282,87.8998267 C142.930996,87.7103836 143.026913,87.4263623 142.930422,87.3314974 C142.544315,86.8573163 141.292369,87.2343388 139.558542,87.5159229 C136.476136,87.9849431 133.87475,87.9810723 133.87475,87.9810723 C133.87475,87.9810723 134.744316,89.5926287 135.226771,90.0669532 C136.288315,91.2051886 139.369718,90.0731177 140.428968,89.6958085 Z" id="Mouth" fill="#482D1F" transform="translate(138.424109, 88.833576) rotate(-5.000000) translate(-138.424109, -88.833576) "></path>
                        <path d="M163.776162,62.616277 L166.969907,61.5488681 C168.794506,60.9390536 169.725175,63.6290534 167.900576,64.2388678 L164.706831,65.3062767 L162.298585,66.1111568 C162.571253,66.9919535 162.755484,67.913733 162.840383,68.8675103 C163.499018,76.2667458 157.930108,82.7897915 150.401874,83.4371408 C143.85203,84.0003587 137.976994,79.9303199 136.126782,73.9898551 L134.439974,74.2508157 L133.046688,74.4663665 C133.330661,81.5912006 127.87063,87.7513609 120.565875,88.3794932 C113.037641,89.0268424 106.400873,83.5533571 105.742238,76.1541217 C105.083603,68.7548862 110.652513,62.2318405 118.180747,61.5844912 C124.93249,61.003912 131.006242,65.3562465 132.633097,71.6540997 L133.990484,71.4441027 L134.439974,74.2508157 C132.783453,73.0460112 132.778078,73.0053251 132.774306,72.9645085 L131.261985,71.86622 L132.633097,71.6540997 C132.701025,71.9170617 132.7612,72.1834155 132.813348,72.4529436 C132.937194,71.9678041 133.316262,71.5484094 133.990484,71.4441027 L135.577074,71.1986465 C134.926187,63.8048227 140.492962,57.2891053 148.016745,56.6421388 C153.558459,56.1656095 158.617106,59.0058288 161.163668,63.4894206 L163.776162,62.616277 Z M131.711475,74.672933 C130.915007,74.7961519 130.169952,74.2550731 130.05587,73.4705876 C129.944047,72.7016478 130.4813,71.9869972 131.261985,71.86622 L133.990484,71.4441027 L135.577074,71.1986465 C135.57746,71.2030204 135.577847,71.2073947 135.578236,71.2117692 C135.663834,72.1733939 135.850405,73.1024921 136.126782,73.9898551 L134.439974,74.2508157 L131.711475,74.672933 Z M134.439974,74.2508157 C133.74981,74.3575888 133.250774,74.0567806 132.985698,73.6158437 L134.439974,74.2508157 Z M150.149924,80.6066828 C156.087686,80.0960975 160.480066,74.95116 159.960579,69.1151433 C159.441092,63.2791266 154.206458,58.9620115 148.268696,59.4725968 C142.330934,59.9831821 137.938554,65.1281195 138.458041,70.9641363 C138.977528,76.800153 144.212162,81.1172681 150.149924,80.6066828 Z M118.432697,64.4149492 C112.494935,64.9255345 108.102555,70.070472 108.622042,75.9064887 C109.141529,81.7425054 114.376163,86.0596205 120.313925,85.5490352 C126.251687,85.0384499 130.644067,79.8935124 130.12458,74.0574957 C130.107056,73.8606316 130.084135,73.6649531 130.05587,73.4705876 C129.247841,67.9142122 124.147817,63.9235087 118.432697,64.4149492 Z" id="Glasses" fill="#482D1F"></path>
                        <path d="M188.114868,301.300421 L75.0375752,303.038128 L75.0283251,303.068783 L74.6849523,303.043547 L74.2479799,303.050262 C74.0410014,303.053443 73.8382735,303.024582 73.6458006,302.967175 L27.3806189,299.566919 C19.9569988,299.021321 13.1232458,295.320074 8.61017767,289.400612 L3.41091647,282.581121 C2.17845163,280.964587 1.38082692,279.059175 1.09416057,277.04672 C0.167732312,270.543009 4.68901333,264.519691 11.1927244,263.593262 L25.0158617,261.62421 C34.4913669,260.274462 44.1115727,260.292041 53.5820818,261.676409 L82.1219612,265.848277 C103.79057,259.038337 132.706142,250.094189 139.925656,248.552765 L130.96103,206.954422 L141.558001,202.794921 C145.079136,210.832815 148.380319,218.354401 151.461551,225.359678 C151.998784,229.527962 152.620914,233.676566 153.349755,237.800433 C160.465174,275.009407 168.711373,297.247523 188.114868,301.300421 Z" id="Shadow-Arm" fill="#8C2A00" opacity="0.2"></path>
                        <path d="M198.946951,206.556522 C198.720093,205.804276 199.156635,205.013707 199.921995,204.790736 C200.687356,204.567765 201.491708,204.996827 201.718566,205.749073 L211.258221,237.381877 C211.485079,238.134122 211.048537,238.924691 210.283177,239.147662 C209.517817,239.370633 208.713465,238.941572 208.486607,238.189326 L198.946951,206.556522 Z M259.320868,191.102179 C258.522617,191.096294 257.88036,190.455501 257.886306,189.670928 C257.892335,188.886355 258.544299,188.255104 259.34255,188.260989 C263.365389,188.290646 267.140175,187.714334 270.673485,186.533912 C271.429289,186.28141 272.250252,186.678919 272.507157,187.421773 C272.764061,188.164627 272.359622,188.971522 271.603817,189.224024 C267.758298,190.50875 263.661789,191.134181 259.320868,191.102179 Z" id="Shadow" fill="#482D1F"></path>
                        <path d="M179.338583,78.8973812 C180.803382,78.4781961 185.138008,77.5426519 187.798599,74.3270267 C190.601643,71.0437297 191.980407,65.8864198 189.911805,61.120618 C188.051985,56.5270046 183.099967,53.0549248 178.500678,53.5454862 C175.917253,53.8627045 173.914575,55.2708338 173.643391,55.4842943 C170.476781,57.9432172 169.209633,61.0944433 169.209633,61.0944433 L168.44469,63.2943427 C168.063193,62.8031682 167.696927,62.3434263 167.348552,61.9199721 C159.973938,55.1385917 155.716104,50.4336026 148.245497,43.6604766 C144.489741,44.9341399 120.37673,53.369928 118.564864,52.5750218 C118.564864,42.9520973 122.14527,39.8545956 122.750037,39.0420258 C125.073114,35.8000009 128.470368,32.6538151 131.503779,30.8718413 C138.722523,27.2088404 147.153152,26.2937531 151.907223,26.4553775 C152.587575,26.4919451 154.724627,26.5933933 157.734018,26.7149003 C158.606357,26.734959 159.478697,26.7550177 160.543024,26.7585675 C163.055651,26.7326495 164.992317,26.756258 166.152637,26.7515534 C180.827628,26.4403656 186.35687,24.4437765 193.996706,27.6847322 C194.442611,27.8867273 195.070279,28.1775195 195.811369,28.5779847 C196.318042,27.2677422 196.911252,26.0486382 197.500516,24.9197496 C213.656256,-5.84684827 233.277734,1.11770761 233.277734,1.23182376 C233.277734,1.34593991 248.145811,1.34593991 251.949328,16.2495882 C252.328506,17.7305527 254.994491,28.1913075 250.732371,36.8163833 C245.01478,48.1019135 227.963002,55.0497791 208.562509,50.3073108 C208.801372,53.6073443 208.570446,56.3104308 208.470963,57.7183802 C207.412511,68.6474636 201.351651,75.5383755 199.579339,78.4478279 C197.216258,82.3270979 194.296923,86.2308172 190.821334,90.1589859 C186.487046,87.5995704 183.168401,84.6125351 180.865399,81.19788 C180.367518,80.4464304 179.857249,79.6771713 179.338583,78.8973812 Z" id="Hair" fill="#482D1F"></path>
                    </g>
                </g>
            </g>
            <g id="Active-objects-/-Devices-/-Mouse" transform="translate(466.000000, 529.000000)" fill="#474961" fill-rule="nonzero">
                <path d="M15.6632756,69.9767639 C26.1632756,58.9767639 48.0632756,49.8767639 85.4632756,69.5767639 C91.1632756,72.4767639 89.4632756,82.2767639 83.2632756,82.4767639 L19.3632756,84.2767639 C14.5632756,84.4767639 12.1632756,73.6767639 15.6632756,69.9767639 Z" id="Mouse" transform="translate(51.472027, 71.139752) rotate(2.000000) translate(-51.472027, -71.139752) "></path>
            </g>
            <g id="Cat" transform="translate(185.727937, 800.000000)" fill="#3ABF7C" fill-rule="nonzero">
                <path d="M168.172063,0.159219095 L181.772063,0.159219095 C188.784823,2.3265368 193.20787,6.92191441 195.041203,13.9453519 C196.874537,20.9687894 192.45149,27.7067451 181.772063,34.1592191 L181.662488,34.1351056 L181.672063,34.1592191 L13.6720626,34.1592191 C2.99263556,27.7067451 -1.43041132,20.9687894 0.402922017,13.9453519 C2.23625535,6.92191441 6.65930223,2.3265368 13.6720626,0.159219095 L168.172063,0.159219095 Z" id="Combined-Shape"></path>
            </g>
            <g id="UI-/-Code-/-1" transform="translate(0.000000, 107.000000)">
                <g id="Code">
                    <path d="M421.3,274.2 L115.7,274.2 C103.7,274.2 93.9,265.316374 93.9,254.438465 L93.9,71.9615353 C93.9,61.083626 103.7,52.2 115.7,52.2 L421.3,52.2 C433.3,52.2 443.1,61.083626 443.1,71.9615353 L443.1,254.347815 C443.1,265.316374 433.3,274.2 421.3,274.2 Z" id="Path" fill="#F2F6FB" fill-rule="nonzero"></path>
                    <path d="M94,51.0051013 C94,39.9565889 102.955622,31 114.001368,31 L422.998632,31 C434.045082,31 443,39.9618677 443,51.0051013 L443,74 L94,74 L94,51.0051013 Z" id="Top-bar" fill="#E1E5F0" fill-rule="nonzero"></path>
                    <g id="Text" transform="translate(142.000000, 123.000000)" fill-rule="nonzero">
                        <path d="M5.75,32 L44.25,32 C47.4256373,32 50,34.5743627 50,37.75 C50,40.9256373 47.4256373,43.5 44.25,43.5 L5.75,43.5 C2.57436269,43.5 3.88903407e-16,40.9256373 0,37.75 C-3.88903407e-16,34.5743627 2.57436269,32 5.75,32 Z M5.75,96 L44.25,96 C47.4256373,96 50,98.5743627 50,101.75 C50,104.925637 47.4256373,107.5 44.25,107.5 L5.75,107.5 C2.57436269,107.5 3.88903407e-16,104.925637 0,101.75 C-3.88903407e-16,98.5743627 2.57436269,96 5.75,96 Z M64.75,32 L103.25,32 C106.425637,32 109,34.5743627 109,37.75 C109,40.9256373 106.425637,43.5 103.25,43.5 L64.75,43.5 C61.5743627,43.5 59,40.9256373 59,37.75 C59,34.5743627 61.5743627,32 64.75,32 Z M64.75,96 L103.25,96 C106.425637,96 109,98.5743627 109,101.75 C109,104.925637 106.425637,107.5 103.25,107.5 L64.75,107.5 C61.5743627,107.5 59,104.925637 59,101.75 C59,98.5743627 61.5743627,96 64.75,96 Z M123.75,32 L162.25,32 C165.425637,32 168,34.5743627 168,37.75 C168,40.9256373 165.425637,43.5 162.25,43.5 L123.75,43.5 C120.574363,43.5 118,40.9256373 118,37.75 C118,34.5743627 120.574363,32 123.75,32 Z M123.75,96 L162.25,96 C165.425637,96 168,98.5743627 168,101.75 C168,104.925637 165.425637,107.5 162.25,107.5 L123.75,107.5 C120.574363,107.5 118,104.925637 118,101.75 C118,98.5743627 120.574363,96 123.75,96 Z M5.75,0 L77.25,0 C80.4256373,-5.8335511e-16 83,2.57436269 83,5.75 C83,8.92563731 80.4256373,11.5 77.25,11.5 L5.75,11.5 C2.57436269,11.5 3.88903407e-16,8.92563731 0,5.75 C-3.88903407e-16,2.57436269 2.57436269,5.8335511e-16 5.75,0 Z M167.75,0 L248.25,0 C251.425637,-5.8335511e-16 254,2.57436269 254,5.75 C254,8.92563731 251.425637,11.5 248.25,11.5 L167.75,11.5 C164.574363,11.5 162,8.92563731 162,5.75 C162,2.57436269 164.574363,5.8335511e-16 167.75,0 Z M167.75,64 L248.25,64 C251.425637,64 254,66.5743627 254,69.75 C254,72.9256373 251.425637,75.5 248.25,75.5 L167.75,75.5 C164.574363,75.5 162,72.9256373 162,69.75 C162,66.5743627 164.574363,64 167.75,64 Z M97.75,64 L112.25,64 C115.425637,64 118,66.5743627 118,69.75 C118,72.9256373 115.425637,75.5 112.25,75.5 L97.75,75.5 C94.5743627,75.5 92,72.9256373 92,69.75 C92,66.5743627 94.5743627,64 97.75,64 Z M132.75,0 L147.25,0 C150.425637,-5.8335511e-16 153,2.57436269 153,5.75 C153,8.92563731 150.425637,11.5 147.25,11.5 L132.75,11.5 C129.574363,11.5 127,8.92563731 127,5.75 C127,2.57436269 129.574363,5.8335511e-16 132.75,0 Z M182.75,32 L248.25,32 C251.425637,32 254,34.5743627 254,37.75 C254,40.9256373 251.425637,43.5 248.25,43.5 L182.75,43.5 C179.574363,43.5 177,40.9256373 177,37.75 C177,34.5743627 179.574363,32 182.75,32 Z" id="Combined-Shape" fill="#E1E5F0"></path>
                        <path d="M5.75,64 L77.25,64 C80.4256373,64 83,66.5743627 83,69.75 C83,72.9256373 80.4256373,75.5 77.25,75.5 L5.75,75.5 C2.57436269,75.5 3.88903407e-16,72.9256373 0,69.75 C-3.88903407e-16,66.5743627 2.57436269,64 5.75,64 Z M132.75,64 L147.25,64 C150.425637,64 153,66.5743627 153,69.75 C153,72.9256373 150.425637,75.5 147.25,75.5 L132.75,75.5 C129.574363,75.5 127,72.9256373 127,69.75 C127,66.5743627 129.574363,64 132.75,64 Z" id="Code" fill="#A339FF"></path>
                        <path d="M97.75,0 L112.25,0 C115.425637,-5.8335511e-16 118,2.57436269 118,5.75 C118,8.92563731 115.425637,11.5 112.25,11.5 L97.75,11.5 C94.5743627,11.5 92,8.92563731 92,5.75 C92,2.57436269 94.5743627,5.8335511e-16 97.75,0 Z M182.75,96 L248.25,96 C251.425637,96 254,98.5743627 254,101.75 C254,104.925637 251.425637,107.5 248.25,107.5 L182.75,107.5 C179.574363,107.5 177,104.925637 177,101.75 C177,98.5743627 179.574363,96 182.75,96 Z" id="Code" fill="#FF5645"></path>
                    </g>
                    <g>
                        <rect id="Placeholder" fill="#3ABF7C" fill-rule="nonzero" x="0" y="0" width="165" height="103" rx="20"></rect>
                        <polyline id="Path" stroke="#FFFFFF" stroke-width="10" stroke-linecap="round" stroke-linejoin="round" points="53.3394161 28 20 54.825054 55 74"></polyline>
                        <polyline id="Path" stroke="#FFFFFF" stroke-width="10" stroke-linecap="round" stroke-linejoin="round" points="108.538462 74 142 51.049676 107 28"></polyline>
                        <path d="M73,85.3847656 L88.2324219,18.3740234" id="Path-Copy-2" stroke="#FFFFFF" stroke-width="10" stroke-linecap="round" stroke-linejoin="round"></path>
                    </g>
                </g>
            </g>
            <g id="Interior-/-Table-/-Table-3" transform="translate(167.500000, 612.000000)" fill="#D8DEED" fill-rule="nonzero">
                <path d="M14,220.017582 C14.1651508,220.005927 14.3318833,220 14.5,220 L213.5,220 C217.365993,220 220.5,223.134007 220.5,227 C220.5,230.865993 217.365993,234 213.5,234 L14.5,234 C14.3318833,234 14.1651508,233.994073 14,233.982418 L14,354.5 C14,358.365993 10.8659932,361.5 7,361.5 C3.13400675,361.5 -3.37507799e-14,358.365993 -3.37507799e-14,354.5 L3.01980663e-14,7.5 C3.17458395e-14,4.13148704 2.37932732,1.31869575 5.5490399,0.650568182 C6.44576872,0.233096975 7.445663,1.93678564e-16 8.5,0 L603.5,0 C607.365993,-7.10171439e-16 610.5,3.13400675 610.5,7 C610.5,10.8659932 607.365993,14 603.5,14 L14,14 L14,220.017582 Z" id="Combined-Shape"></path>
            </g>
            <g id="Active-objects-/-Devices-/-Imac" transform="translate(190.400000, 346.000000)">
                <g id="IMac" transform="translate(52.000000, 77.000000)">
                    <path d="M77.2741822,174.002112 L86.8908439,135.2 L14.7012122,135.2 C7.20121215,135.2 1,129.5 1,122.6 L1,12.7 C0.901212154,5.7 7.00121215,0 14.6012122,0 L234.301212,0 C241.801212,0 248.001212,5.7 248.001212,12.6 L248.001212,122.6 C248.001212,129.5 241.801212,135.2 234.301212,135.2 L146.325551,135.2 L142.355883,174.002112 L168.402424,174.002112 C172.402424,174.002112 175.502424,177.202112 175.502424,181.102112 C175.502424,185.102112 172.302424,188.202112 168.402424,188.202112 L56.9024243,188.202112 C52.9024243,188.202112 49.8024243,185.002112 49.8024243,181.102112 C49.6024243,177.202112 52.9024243,174.002112 56.9024243,174.002112 L77.2741822,174.002112 Z" fill="#474961" fill-rule="nonzero"></path>
                    <path d="M149.306026,106.91856 L149.602424,174.102112 L142.432781,174.102112 L149.306026,106.91856 Z" id="Shadow" fill="#FFFFFF"></path>
                </g>
            </g>
        </g>
    </g>
</svg>